<svg width="117" height="50" viewBox="0 0 117 50" fill="none" xmlns="http://www.w3.org/2000/svg">
<g clip-path="url(#clip0_1599_812)">
<mask id="mask0_1599_812" style="mask-type:luminance" maskUnits="userSpaceOnUse" x="0" y="0" width="117" height="50">
<path d="M117 0H0V49.6364H117V0Z" fill="white"/>
</mask>
<g mask="url(#mask0_1599_812)">
<path d="M116.999 35.4463C116.999 36.944 115.793 38.1582 114.304 38.1582C112.816 38.1582 111.608 36.944 111.608 35.4463C111.608 33.9485 112.816 32.7344 114.304 32.7344C115.793 32.7344 116.999 33.9485 116.999 35.4463Z" fill="#F78D2F"/>
<path d="M41.6387 23.0298C40.6161 23.0298 39.6549 22.8447 38.755 22.4743C37.8552 22.1041 37.0746 21.5864 36.4134 20.921C35.752 20.2558 35.2272 19.4671 34.8386 18.5548C34.4502 17.6426 34.2559 16.6514 34.2559 15.5815V15.5403C34.2559 14.4981 34.4466 13.5207 34.8285 12.6083C35.2099 11.6962 35.735 10.9006 36.4032 10.2215C37.071 9.54257 37.8655 9.01101 38.7857 8.62695C39.706 8.24295 40.7113 8.05078 41.8024 8.05078C42.5386 8.05078 43.2064 8.12278 43.8065 8.26687C44.4062 8.41087 44.955 8.61664 45.4528 8.88418C45.9504 9.15168 46.4003 9.47051 46.8026 9.84101C47.2046 10.2112 47.5625 10.616 47.8763 11.0549L44.8905 13.38C44.4814 12.8587 44.0314 12.4472 43.5406 12.1454C43.0498 11.8438 42.4568 11.6927 41.7614 11.6927C41.2568 11.6927 40.7966 11.7924 40.381 11.9911C39.9649 12.19 39.607 12.4611 39.3072 12.8037C39.0072 13.1467 38.772 13.5516 38.6017 14.0177C38.431 14.4842 38.346 14.9779 38.346 15.4992V15.5403C38.346 16.0752 38.431 16.5795 38.6017 17.0527C38.772 17.526 39.0072 17.9343 39.3072 18.277C39.607 18.62 39.9649 18.891 40.381 19.0898C40.7966 19.2887 41.2568 19.3879 41.7614 19.3879C42.1295 19.3879 42.4669 19.3469 42.7736 19.2646C43.0805 19.1822 43.3599 19.0625 43.6122 18.9046C43.8644 18.7469 44.103 18.5618 44.3281 18.3489C44.553 18.1365 44.7744 17.8999 44.9926 17.6391L47.9785 19.7789C47.6376 20.2453 47.266 20.6775 46.8639 21.0753C46.4616 21.4733 46.005 21.816 45.4937 22.1041C44.9825 22.3921 44.4099 22.6184 43.7758 22.783C43.1418 22.9477 42.4293 23.0298 41.6387 23.0298Z" fill="white"/>
<path d="M57.6317 8.23438H53.8073L47.7129 22.7402H51.8848L55.6888 12.9875L59.4723 22.7402H63.7261L57.6317 8.23438Z" fill="white"/>
<path d="M78.1826 8.33789H89.676V11.733H82.089V13.9139H88.9607V17.062H82.089V19.346H89.7788V22.7409H78.1826V8.33789Z" fill="white"/>
<path d="M91.0059 8.33789H102.499V11.733H94.9121V13.9139H101.783V17.062H94.9121V19.346H102.601V22.7409H91.0059V8.33789Z" fill="white"/>
<path d="M78.3076 23.7559H82.4998L85.9153 29.3318L89.3307 23.7559H93.5241V38.1588H89.5762V29.8874L85.9256 35.5252H85.8437L82.2139 29.9285V38.1588H78.3076V23.7559Z" fill="white"/>
<path d="M104.014 23.6523H100.189L94.0947 38.1583H98.2677L102.071 28.4054L105.854 38.1583H110.109L104.014 23.6523Z" fill="white"/>
<path d="M57.7557 23.6523H53.9314L47.8369 38.1583H52.009L55.8129 28.4054L59.5964 38.1583H63.8501L57.7557 23.6523Z" fill="white"/>
<path d="M34.8701 23.7559V38.1588H38.8377V23.7559H34.8701Z" fill="white"/>
<path d="M43.478 29.4587L48.4685 23.7559H43.7647L38.8359 29.5992L43.8874 38.1588H48.6525L43.478 29.4587Z" fill="white"/>
<path d="M74.0523 17.7206C74.9522 17.3367 75.6678 16.781 76.1996 16.0538C76.7313 15.3269 76.9972 14.4078 76.9972 13.2966V13.2556C76.9972 11.843 76.5745 10.7248 75.7293 9.90176C75.2519 9.40788 74.6315 9.02409 73.8682 8.74944C73.1045 8.4753 72.1707 8.33789 71.0664 8.33789H64.2969V22.7409H68.2646V18.3789V15.2514V11.7948H70.8618C71.5297 11.7948 72.0548 11.9355 72.4367 12.2166C72.8183 12.4977 73.0093 12.9264 73.0093 13.5024V13.5436C73.0093 14.0651 72.8252 14.4798 72.457 14.7885C72.0889 15.0971 71.564 15.2514 70.8823 15.2514H68.2646L72.8864 22.7409H77.4677L74.0523 17.7206Z" fill="white"/>
<path d="M74.1762 33.1385C75.076 32.7544 75.7917 32.1989 76.3235 31.4717C76.8552 30.7448 77.121 29.8256 77.121 28.7145V28.6735C77.121 27.2608 76.6984 26.1427 75.8532 25.3196C75.3758 24.8258 74.7555 24.4419 73.992 24.1674C73.2283 23.8932 72.2946 23.7559 71.1901 23.7559H64.4209V38.1588H68.3884V33.7968V30.6693V27.2125H70.9857C71.6535 27.2125 72.1786 27.3533 72.5605 27.6342C72.942 27.9156 73.1331 28.3442 73.1331 28.9203V28.9616C73.1331 29.4829 72.9491 29.8976 72.5809 30.2063C72.2128 30.5149 71.6877 30.6693 71.0061 30.6693H68.3884L73.0105 38.1588H77.5915L74.1762 33.1385Z" fill="white"/>
<path d="M113.584 17.7206C114.484 17.3367 115.199 16.781 115.732 16.0538C116.263 15.3269 116.53 14.4078 116.53 13.2966V13.2556C116.53 11.843 116.107 10.7248 115.261 9.90176C114.784 9.40788 114.164 9.02409 113.4 8.74944C112.637 8.4753 111.703 8.33789 110.598 8.33789H103.829V22.7409H107.797V18.3789V15.2514V11.7948H110.394C111.062 11.7948 111.587 11.9355 111.969 12.2166C112.35 12.4977 112.541 12.9264 112.541 13.5024V13.5436C112.541 14.0651 112.357 14.4798 111.989 14.7885C111.621 15.0971 111.096 15.2514 110.414 15.2514H107.797L112.419 22.7409H117L113.584 17.7206Z" fill="white"/>
<path d="M5.75591 35.0478L10.5095 27.0954C10.5095 27.0954 14.7071 18.302 19.5737 27.475L22.5725 32.5863C22.5725 32.5863 23.2636 33.7832 23.9812 35.0478C27.4832 32.311 29.7371 28.0344 29.7371 23.2275C29.7371 14.9659 23.0803 8.26855 14.8687 8.26855C6.65688 8.26855 0 14.9659 0 23.2275C0 28.0344 2.25389 32.311 5.75591 35.0478Z" fill="white"/>
<path d="M21.3598 36.6719L19.2995 33.559L18.0858 31.8594C18.0858 31.8594 16.7871 30.1441 15.6938 29.9692C15.6938 29.9692 14.048 29.4021 12.2597 31.394C12.2597 31.394 10.9604 33.0928 10.8216 33.3454L8.54688 36.7684C10.466 37.6771 12.609 38.1859 14.8706 38.1859C17.2006 38.1859 19.4052 37.6462 21.3683 36.685C21.3655 36.6806 21.3626 36.6761 21.3598 36.6719Z" fill="#F78D2F"/>
</g>
</g>
<defs>
<clipPath id="clip0_1599_812">
<rect width="117" height="49.6364" fill="white"/>
</clipPath>
</defs>
</svg>
