<svg width="200" height="56" viewBox="0 0 200 56" fill="none" xmlns="http://www.w3.org/2000/svg">
<g clip-path="url(#clip0_1599_1538)">
<path d="M47.489 35.0666C42.776 35.0666 38.7588 30.8773 38.7588 25.4493C38.7588 20.0213 42.776 15.832 47.489 15.832C51.7687 15.832 54.6878 19.1066 55.5275 22.6173H52.4042C51.825 20.6702 50.1498 18.7823 47.489 18.7823C44.4532 18.7823 41.7654 21.5553 41.7654 25.4493C41.7654 29.3433 44.4532 32.087 47.489 32.087C50.1789 32.087 51.8542 30.2284 52.5188 28.2815H55.6421C54.8045 31.792 51.8542 35.0666 47.489 35.0666Z" fill="white"/>
<path d="M63.951 35.0662C60.3943 35.0662 57.3877 31.939 57.3877 28.0154C57.3877 24.0918 60.3943 20.9648 63.951 20.9648C67.5056 20.9648 70.4851 24.0918 70.4851 28.0154C70.4851 31.939 67.5056 35.0662 63.951 35.0662ZM63.951 32.352C65.9742 32.352 67.6223 30.5821 67.6223 28.0154C67.6223 25.4785 65.9742 23.7083 63.951 23.7083C61.8987 23.7083 60.2506 25.4785 60.2506 28.0154C60.2506 30.5821 61.8987 32.352 63.951 32.352Z" fill="white"/>
<path d="M78.1682 35.0679C75.074 35.0679 72.8779 32.7373 72.8779 29.1973V21.291H75.7408V28.9907C75.7408 30.9674 77.0118 32.3538 78.7474 32.3538C80.5393 32.3538 81.8103 30.9674 81.8103 28.9907V21.291H84.644V34.7434H82.5041L81.9853 33.2389H81.8686C81.4352 33.7994 80.1059 35.0679 78.1682 35.0679Z" fill="white"/>
<path d="M90.8179 34.7416H87.9551V21.2892H90.0949L90.6158 22.7939H90.7596C91.1347 22.2334 92.3202 20.9648 93.9975 20.9648C94.4601 20.9648 94.7789 20.9944 95.1247 21.1123V24.0033C94.7497 23.9149 94.4017 23.8853 93.9392 23.8853C92.0889 23.8853 90.8179 25.1834 90.8179 27.3369V34.7416Z" fill="white"/>
<path d="M101.188 35.0662C98.0648 35.0662 96.0979 33.0306 95.9541 30.641H98.7878C98.8732 31.8211 99.7712 32.6471 101.188 32.6471C102.603 32.6471 103.326 31.9096 103.326 31.0541C103.326 28.3696 96.2729 29.6086 96.2729 24.9473C96.2729 22.7348 98.0356 20.9648 101.071 20.9648C103.963 20.9648 105.843 22.8824 106.016 25.2719H103.182C103.038 24.151 102.372 23.4133 101.071 23.4133C99.8004 23.4133 99.1337 24.0329 99.1337 24.8295C99.1337 27.3664 106.16 26.157 106.16 30.9065C106.16 33.2667 104.397 35.0662 101.188 35.0662Z" fill="white"/>
<path d="M120.763 27.7204C120.763 28.3989 120.705 28.8709 120.617 29.1659H110.874C111.251 31.2015 112.639 32.4405 114.516 32.4405C115.992 32.4405 116.888 31.7031 117.35 31.0245H120.33C119.577 32.9716 117.438 35.0662 114.546 35.0662C110.903 35.0662 107.984 32.0275 107.984 28.0154C107.984 24.0918 110.991 20.9648 114.489 20.9648C118.015 20.9648 120.763 23.9149 120.763 27.7204ZM114.489 23.5903C112.725 23.5903 111.251 24.8884 110.845 26.9534H118.015C117.669 24.9769 116.281 23.5903 114.489 23.5903Z" fill="white"/>
<path d="M137.095 34.7436H133.596L129.694 27.6339H126.687V34.7436H123.651V16.1582H130.677C134.117 16.1582 136.661 18.6362 136.661 21.9404C136.661 24.3888 135.101 26.3949 132.73 27.221L137.095 34.7436ZM130.59 19.0493H126.687V24.8019H130.59C132.355 24.8019 133.626 23.5923 133.626 21.9697C133.626 20.2883 132.355 19.0493 130.59 19.0493Z" fill="white"/>
<path d="M151.312 27.7204C151.312 28.3989 151.256 28.8709 151.168 29.1659H141.425C141.8 31.2015 143.188 32.4405 145.067 32.4405C146.543 32.4405 147.438 31.7031 147.901 31.0245H150.878C150.126 32.9716 147.989 35.0662 145.096 35.0662C141.454 35.0662 138.533 32.0275 138.533 28.0154C138.533 24.0918 141.54 20.9648 145.038 20.9648C148.566 20.9648 151.312 23.9149 151.312 27.7204ZM145.038 23.5903C143.275 23.5903 141.8 24.8884 141.396 26.9534H148.566C148.22 24.9769 146.832 23.5903 145.038 23.5903Z" fill="white"/>
<path d="M156.715 39.5206H153.853V21.2892H155.992L156.513 22.7939H156.657C157.032 22.3219 158.478 20.9648 160.589 20.9648C163.827 20.9648 166.66 23.9149 166.66 28.0154C166.66 32.1161 163.827 35.0662 160.589 35.0662C158.566 35.0662 157.149 33.7976 156.859 33.3256H156.715V39.5206ZM160.272 32.352C162.149 32.352 163.798 30.5821 163.798 28.0154C163.798 25.4489 162.149 23.7083 160.272 23.7083C158.364 23.7083 156.715 25.4489 156.715 28.0154C156.715 30.5821 158.364 32.352 160.272 32.352Z" fill="white"/>
<path d="M175.023 35.0662C171.467 35.0662 168.46 31.939 168.46 28.0154C168.46 24.0918 171.467 20.9648 175.023 20.9648C178.578 20.9648 181.557 24.0918 181.557 28.0154C181.557 31.939 178.578 35.0662 175.023 35.0662ZM175.023 32.352C177.046 32.352 178.695 30.5821 178.695 28.0154C178.695 25.4785 177.046 23.7083 175.023 23.7083C172.969 23.7083 171.323 25.4785 171.323 28.0154C171.323 30.5821 172.969 32.352 175.023 32.352Z" fill="white"/>
<path d="M186.926 34.7416H184.063V21.2892H186.203L186.724 22.7939H186.868C187.245 22.2334 188.429 20.9648 190.106 20.9648C190.568 20.9648 190.887 20.9944 191.233 21.1123V24.0033C190.858 23.9149 190.51 23.8853 190.048 23.8853C188.197 23.8853 186.926 25.1834 186.926 27.3369V34.7416Z" fill="white"/>
<path d="M198.44 35.0683C196.069 35.0683 194.306 33.3573 194.306 30.3778V23.9171H192.166V21.4686H193.091C194.131 21.4686 194.681 20.9079 194.681 19.8754V17.8398H197.167V21.2914H200V23.9171H197.167V30.1712C197.167 31.6461 197.919 32.2953 199.104 32.2953C199.45 32.2953 199.74 32.2657 200 32.1477V34.8029C199.682 34.9207 199.163 35.0683 198.44 35.0683Z" fill="white"/>
<path d="M0 31.2461H3.06913C7.54468 31.2461 11.1764 34.9498 11.1764 39.5186V42.6493H4.74225C3.69212 42.6493 0.916779 42.6491 0 42.6493V31.2461Z" fill="#36D073"/>
<path d="M22.7945 40.1779C20.3858 41.7888 17.1479 42.6484 14.2497 42.6484V27.9885H0C0 25.0891 0.858434 22.2548 2.46905 19.8441C4.07966 17.4333 6.36746 15.5543 9.04695 14.4446C11.7244 13.3351 13.8975 13.0003 17.1438 13.0001C20.3921 12.9999 26.3491 13.0003 29.0265 13.0001V25.1287C29.0265 28.3776 29.3015 30.92 28.193 33.5987C27.0825 36.2775 25.2052 38.5671 22.7945 40.1779Z" fill="#36D073"/>
</g>
<defs>
<clipPath id="clip0_1599_1538">
<rect width="200" height="56" fill="white"/>
</clipPath>
</defs>
</svg>
