<svg width="163" height="32" viewBox="0 0 163 32" fill="none" xmlns="http://www.w3.org/2000/svg">
<path fill-rule="evenodd" clip-rule="evenodd" d="M156.752 11.0489H162.917C162.963 11.0489 163.001 11.0082 163.001 10.9579V4.87795C163 3.39192 162.508 2.18299 161.513 1.3381C160.597 0.561128 159.222 0.0925 157.385 0.000132568C157.338 -0.00258412 157.3 0.036808 157.3 0.0857084V2.37859C157.3 2.42342 157.334 2.46009 157.376 2.46417C158.989 2.57691 160.215 3.09716 160.215 4.90919L156.752 4.91055C156.705 4.91055 156.667 4.9513 156.667 5.00155V10.9593C156.667 11.0082 156.705 11.0489 156.752 11.0489ZM23.3893 15.9702H15.913C15.7962 15.9702 15.7215 16.0748 15.7215 16.178V20.1933C15.7215 20.3196 15.8166 20.4011 15.913 20.4011H18.5686V23.634C18.5686 26.0382 17.9818 27.3287 15.913 27.3287C14.1852 27.3287 12.9586 26.2814 12.9586 23.0241V13.6365C12.9586 10.5178 13.8877 9.05621 15.9456 9.05621C17.8011 9.05621 18.5577 10.1959 18.5577 12.3244V13.5333C18.5577 13.6596 18.6541 13.7398 18.7506 13.7398H23.3472C23.464 13.7398 23.5387 13.6365 23.5387 13.5333V12.1152C23.5809 7.06488 20.894 4.39438 16.0312 4.39438C11.1683 4.39438 8.00065 7.28357 8.00065 13.3594V23.4044C8.00065 29.3879 11.6899 31.9891 15.7853 31.9891C20.3711 31.9891 23.57 30.1825 23.57 23.4968V16.1658C23.5719 16.1148 23.5544 16.065 23.5207 16.0266C23.4871 15.9882 23.4401 15.9641 23.3893 15.9593V15.9702ZM37.7008 26.6685H30.5125V5.10479C30.5125 4.97711 30.4174 4.89696 30.321 4.89696H25.7977C25.6809 4.89696 25.6075 5.0002 25.6075 5.10479V31.3059C25.6075 31.4322 25.7026 31.5124 25.7977 31.5124H37.69C37.8068 31.5124 37.8815 31.4091 37.8815 31.3059V26.8872C37.8815 26.7609 37.7864 26.6794 37.69 26.6794H37.7008V26.6685ZM105.251 13.4274C105.251 7.38681 108.354 4.44056 113.1 4.44056C117.782 4.44056 120.928 7.39767 120.906 13.4274V23.001C120.906 29.123 117.995 31.9416 113.1 31.9416C108.204 31.9416 105.251 29.1801 105.251 23.001V13.4274ZM113.1 27.3504C115.083 27.3504 115.905 25.901 115.905 22.8176V13.6461C115.905 10.5626 115.105 9.06708 113.1 9.06708C111.095 9.06708 110.295 10.6197 110.295 13.6461V22.8176C110.295 25.9133 111.117 27.3504 113.1 27.3504ZM130.666 4.44056C125.92 4.44056 122.816 7.38681 122.816 13.4274V23.001C122.816 29.1814 125.77 31.9416 130.666 31.9416C135.561 31.9416 138.472 29.123 138.472 23.001V13.4274C138.494 7.39767 135.348 4.44056 130.666 4.44056ZM133.471 22.819C133.471 25.9024 132.649 27.3517 130.666 27.3517C128.683 27.3517 127.861 25.9133 127.861 22.819V13.6474C127.861 10.621 128.661 9.06844 130.666 9.06844C132.671 9.06844 133.471 10.5626 133.471 13.6474V22.819ZM88.6795 4.88881H95.4617V4.9119C100.047 4.9119 103.503 7.43163 103.503 13.6461V22.7714C103.503 28.9274 100.133 31.5056 95.4074 31.5056H88.6795C88.583 31.5056 88.4866 31.4241 88.4866 31.2977V5.11973C88.4866 5.00427 88.5613 4.88881 88.6795 4.88881ZM95.1955 26.6604C97.2425 26.6604 98.5234 25.2558 98.5234 21.9768L98.5329 21.9876V13.9911C98.5329 10.6767 97.1895 9.34146 95.152 9.34146H93.2856V26.6604H95.1955ZM63.9481 4.39438H63.8734C59.2021 4.39438 56.7394 7.27135 56.7394 11.5868C56.7394 16.0788 59.6408 18.1693 62.0342 19.8931L62.4974 20.2286L63.053 20.632L63.0543 20.6334L63.0557 20.6347C64.7455 21.8572 66.0495 22.7999 66.0495 24.8768C66.0495 26.6155 64.9832 27.3056 63.7457 27.3395C62.3806 27.3735 61.389 26.2461 61.389 24.8307V22.5405C61.3895 22.5063 61.3833 22.4723 61.3707 22.4405C61.358 22.4089 61.3393 22.3798 61.3154 22.3553C61.2916 22.3309 61.2631 22.3113 61.2317 22.2979C61.2002 22.2844 61.1665 22.2774 61.1323 22.277H56.7598C56.6103 22.277 56.5044 22.3911 56.5044 22.5419V24.8646C56.5044 29.4558 59.0852 32 63.6289 32C68.1712 32 70.9232 29.3988 70.9232 24.8307C70.9232 20.0737 68.106 18.0186 65.6515 16.2256L65.57 16.1658C65.3018 15.9696 65.0319 15.7759 64.7604 15.5844C63.0788 14.3891 61.5167 13.2793 61.5167 11.5515C61.5167 9.83726 62.6034 9.03176 63.8625 9.03176C65.2182 9.03176 66.1772 10.079 66.1772 11.4605V13.4844C66.1772 13.6338 66.2953 13.7493 66.4339 13.7493H70.8064C70.9558 13.7493 71.0618 13.6352 71.0618 13.4858V11.5175C71.0726 7.00783 68.3532 4.41747 63.9481 4.39438ZM79.6546 4.39438H79.7294C84.1345 4.41747 86.843 7.00647 86.843 11.5175V13.4858C86.843 13.6352 86.7371 13.7493 86.5876 13.7493H82.2138C82.1797 13.7487 82.1461 13.7415 82.1147 13.728C82.0835 13.7145 82.0553 13.695 82.0315 13.6704C82.0078 13.6459 81.9891 13.617 81.9766 13.5853C81.9641 13.5537 81.9579 13.5199 81.9584 13.4858V11.4605C81.9584 10.079 80.9994 9.03176 79.6438 9.03176C78.386 9.03176 77.2979 9.83726 77.2979 11.5515C77.2979 13.2779 78.86 14.3891 80.5416 15.5844C80.8106 15.7746 81.0823 15.9688 81.3512 16.1658L81.4327 16.2256C83.8886 18.0186 86.7045 20.0737 86.7045 24.8307C86.7045 29.3988 83.9524 32 79.4101 32C74.8665 32 72.2856 29.4572 72.2856 24.866V22.5405C72.2856 22.3911 72.3929 22.277 72.541 22.277H76.9149C77.0534 22.277 77.1702 22.3911 77.1702 22.5419V24.8293C77.1702 26.2447 78.1618 27.3721 79.527 27.3382C80.7631 27.3042 81.8307 26.6128 81.8307 24.8755C81.8307 22.7972 80.5267 21.8559 78.8383 20.6334C78.6563 20.5016 78.4688 20.3671 78.28 20.2259L77.8209 19.8944L77.8168 19.8917C75.4221 18.168 72.5193 16.0775 72.5193 11.5854C72.5193 7.26999 74.9847 4.39302 79.6546 4.39302V4.39438ZM155.002 13.0851V10.8873C155.002 7.53894 152.421 4.90375 149.456 4.90375H140.647C140.541 4.90375 140.455 4.99612 140.455 5.11022V31.2896C140.455 31.4037 140.541 31.4961 140.647 31.4961H144.956C145.072 31.4961 145.147 31.3928 145.147 31.2896V20.3916H147.259C149.222 20.3916 149.84 21.174 149.84 23.1653V31.2665C149.84 31.3928 149.937 31.473 150.032 31.473H154.479C154.533 31.4716 154.584 31.4492 154.622 31.4107C154.66 31.3722 154.681 31.3204 154.681 31.2665V23.3147C154.681 20.5981 153.989 18.8607 152.219 18.1476C154 17.3652 155.002 15.8004 155.002 13.0851ZM150.181 14.006C150.181 15.0981 149.37 15.9729 148.368 15.9729H145.094V9.32245H148.368C149.37 9.32245 150.181 10.1972 150.181 11.2785V14.006ZM45.4529 4.90375H50.04C50.1256 4.90375 50.2098 4.97167 50.2316 5.07626L56.1825 31.2203C56.2368 31.3697 56.1281 31.5083 55.9909 31.5083H51.5967C51.522 31.5083 51.4255 31.439 51.4052 31.3344L50.4666 26.6522H44.9843L44.047 31.3344C44.0404 31.3813 44.0173 31.4242 43.9821 31.4558C43.9468 31.4874 43.9014 31.5054 43.8541 31.5069H39.4599C39.3322 31.5069 39.2358 31.3697 39.2684 31.2203L45.26 5.07626C45.2645 5.02846 45.2868 4.98413 45.3226 4.95214C45.3584 4.92014 45.405 4.90286 45.4529 4.90375ZM47.6833 13.2114L45.8699 22.2566H49.5374L47.7254 13.2114L47.7037 13.3377L47.6833 13.2114ZM6.24838 4.89832H0.0842173C0.0380336 4.89832 0 4.93907 0 4.98797V10.9443C0 10.9946 0.0380336 11.0353 0.0842173 11.0353H3.54799C3.54799 12.8487 2.32141 13.369 0.709056 13.4817C0.6878 13.4835 0.668032 13.4932 0.653863 13.5093C0.639696 13.5252 0.632218 13.5459 0.632988 13.5673V15.8615C0.632988 15.9091 0.67238 15.9485 0.717206 15.9457C2.55504 15.8534 3.92969 15.3847 4.84521 14.6078C5.84088 13.7629 6.3326 12.5539 6.33396 11.0679V4.98797C6.33396 4.93771 6.29592 4.89696 6.24974 4.89696L6.24838 4.89832Z" fill="#12C27E"/>
</svg>
