<svg width="184" height="38" viewBox="0 0 184 38" fill="none" xmlns="http://www.w3.org/2000/svg">
<path fill-rule="evenodd" clip-rule="evenodd" d="M175.926 11.6722C186.886 11.09 186.529 30.1663 175.812 28.7943C173.996 28.562 172.817 27.7273 171.732 26.2924C171.807 27.6182 171.804 28.9867 171.816 30.3178C171.83 31.6184 171.816 32.9347 171.812 34.2367C170.543 34.3262 168.562 34.279 167.226 34.2885L167.221 12.1156L171.527 12.1137C171.532 12.8555 171.58 13.5025 171.636 14.2387C172.944 12.4709 173.775 12.0231 175.926 11.6722ZM177.095 15.3871C176.378 15.0071 175.539 15.0664 174.751 15.1176C171.717 15.9076 171.172 19.7455 171.858 22.3285C172.502 24.754 173.926 25.679 176.386 25.5082C177.498 25.1538 178.302 24.5341 178.848 23.4515C180.049 21.0691 179.688 16.7628 177.095 15.3871Z" fill="white"/>
<path d="M75.5866 12.1016L80.0031 12.112C80.1892 13.4417 80.5798 14.6159 80.8896 15.9078C81.4928 18.4227 82.2402 21.0023 82.727 23.5345C83.1413 22.3023 83.5208 20.6188 83.8491 19.332C84.454 16.9104 85.1047 14.5005 85.8008 12.1035L90.3566 12.1205C89.9939 13.0708 89.5158 14.9718 89.1481 16.0972C87.9159 19.9756 86.3433 24.6232 85.2757 28.4963L80.5609 28.4831C79.7765 24.8723 78.6674 21.3435 77.8043 17.7504C77.8043 17.7504 77.6591 17.6159 77.645 17.6028C77.4333 17.9511 75.0647 27.6039 74.8807 28.4992L70.0745 28.4908C69.9002 27.311 69.2008 25.2136 68.8065 23.9975L66.4308 16.6099C66.0018 15.2622 65.3657 13.4698 65.1104 12.1195L69.7735 12.106C69.9558 13.2032 70.6519 15.3407 70.9787 16.5051L72.8275 23.3464C73.3589 21.6735 73.5491 20.0522 74.0075 18.3924C74.5778 16.3272 74.9766 14.1347 75.5866 12.1016Z" fill="white"/>
<path d="M129.814 5.80078C131.285 5.83025 132.809 5.81566 134.283 5.82158C134.299 8.70928 134.298 11.597 134.28 14.4847C134.607 14.0509 134.921 13.6457 135.293 13.2574C137.886 10.5457 143.871 11.3203 144.764 15.3252C145.196 17.2611 145.109 19.4885 145.114 21.472C145.125 23.8087 145.121 26.1456 145.103 28.4822L140.603 28.4952L140.6 22.4324C140.603 20.1206 141.295 15.1019 137.771 15.1566C133.637 15.2208 134.28 19.929 134.289 22.7887L134.3 28.4785L129.824 28.4868C129.751 21.0906 129.714 13.1774 129.814 5.80078Z" fill="white"/>
<path d="M159.445 12.1238C160.917 12.0981 162.442 12.1198 163.92 12.1216C163.866 13.8519 163.902 15.7497 163.902 17.4937L163.916 28.4781L159.662 28.4969C159.631 27.7264 159.635 26.9278 159.628 26.1546C158.189 28.0348 156.894 28.8632 154.457 28.8851C148.065 28.9426 148.554 24.023 148.55 19.2969L148.539 12.121L153.01 12.1187L152.999 18.76C152.997 21.1585 152.452 25.5283 156.036 25.4241C159.943 25.3105 159.461 20.8716 159.457 18.1533L159.445 12.1238Z" fill="white"/>
<path d="M55.5098 11.6783C57.1513 11.5602 59.9585 11.9598 61.3104 12.9745C62.8778 14.1508 63.1958 15.1459 63.5155 16.9354C62.0639 16.8882 60.7303 16.9065 59.2822 16.9339C59.0535 16.2497 58.9366 15.9734 58.569 15.3592C54.8961 12.9724 51.2108 16.7106 55.4967 17.9095C59.2214 18.9515 64.9648 18.9986 63.7754 24.7348C63.6175 25.4965 63.2129 26.0221 62.7496 26.6228C61.2363 28.5301 59.0731 28.6684 56.8218 28.8789C52.7067 28.9046 49.122 27.8216 48.8037 23.2148L52.8391 23.1728C53.1853 24.1209 53.2228 24.435 53.9703 25.1126C56.5609 27.4609 62.5788 24.0769 57.5305 22.0633C55.3575 21.1967 52.3591 21.3437 50.4312 19.769C48.6903 18.3469 48.7693 15.3921 50.1419 13.7485C51.4946 12.185 53.5631 11.8728 55.5098 11.6783Z" fill="white"/>
<path d="M118.901 11.6794C120.716 11.5605 123.408 12.1852 124.826 13.3617C126.448 14.7059 126.92 15.9185 127.169 17.9024C125.691 17.9617 124.179 17.9351 122.697 17.9256L122.676 17.7974C122.125 14.4161 118.177 14.2551 116.536 16.6668C115.155 18.6969 115.151 23.5266 117.499 25.005C120.051 26.6119 122.406 24.8466 122.992 22.1893C123.018 22.0627 123.49 22.11 123.604 22.1105C124.837 22.1337 126.07 22.1464 127.303 22.1488C126.377 25.9831 124.918 28.2933 120.667 28.7845C118.277 29.0608 115.954 28.6307 114.018 27.145C110.425 24.387 110.31 17.9245 112.982 14.5299C114.486 12.6263 116.513 11.9304 118.901 11.6794Z" fill="white"/>
<path d="M101.674 7.12207L106.169 7.13193L106.166 12.1113L109.464 12.132C109.454 13.1226 109.464 14.1133 109.495 15.1035C108.387 15.1001 107.278 15.1188 106.171 15.1595C106.173 17.9459 106.149 20.7664 106.2 23.5529C106.205 23.8224 106.253 24.4767 106.449 24.6503C107.19 25.3058 108.576 25.0854 109.528 25.0185C109.45 25.9326 109.49 27.2623 109.496 28.2129L109.442 28.4289C109.017 28.616 108.584 28.5777 108.138 28.5951C101.475 28.8539 101.649 27.107 101.671 21.536L101.68 15.1281L98.9113 15.1443L98.8984 12.1025L101.673 12.1382L101.674 7.12207Z" fill="white"/>
<path d="M92.4902 12.1049C93.9758 12.1027 95.4603 12.1091 96.9449 12.1241C96.9143 17.5659 96.9222 23.008 96.9676 28.4497C95.6644 28.5429 93.8831 28.4926 92.5445 28.492L92.4902 12.1049Z" fill="white"/>
<path d="M92.4844 5.81641L96.9686 5.83711C96.9331 6.96522 96.9696 8.29006 96.9715 9.43394C96.3328 9.57064 93.2838 9.49761 92.5445 9.48686C92.5317 8.26335 92.512 7.03983 92.4844 5.81641Z" fill="white"/>
<path d="M18.4809 37.8598C8.45914 37.6209 0.360829 29.611 0.0116771 19.5926C-0.337475 9.57397 7.18357 1.01989 17.1644 0.0838046C27.1453 -0.852279 36.1258 6.15417 37.6456 16.0629C38.4947 21.5993 36.8487 27.2275 33.1502 31.434C29.4518 35.6404 24.0804 37.9934 18.4809 37.8598Z" fill="#D93C31"/>
<path d="M27.8435 9.96289C28.0393 10.0093 29.7485 11.1319 30.0333 11.3115L35.1961 14.5491C35.998 15.0467 36.8248 15.6111 37.6442 16.063C38.4933 21.5993 36.8473 27.2276 33.1488 31.434C29.4504 35.6405 24.079 37.9935 18.4795 37.8599C18.6757 37.8228 19.0726 37.8521 19.3262 37.8253C19.1364 37.6799 18.6099 37.3707 18.392 37.235L16.4964 36.0574L10.0938 32.0775L10.3111 31.9528C11.3698 31.3792 12.4344 30.8163 13.5045 30.2643C13.6813 30.1713 13.8663 30.069 14.0454 29.9829C14.5968 29.7179 15.0954 29.3819 15.6143 29.0606C16.1719 28.7184 16.7326 28.3812 17.2964 28.0493C19.8801 26.5219 24.7845 23.8567 26.2858 21.3221C26.5953 20.7992 26.8919 20.1138 26.7287 19.4952C26.6333 19.1338 26.3636 18.8531 26.0462 18.6694C25.1656 18.16 23.7908 18.1752 22.7997 18.2725C22.5787 18.2942 22.3455 18.3047 22.1305 18.3617C23.4416 16.4728 24.7448 14.5175 26.0355 12.6108L27.1872 10.9111C27.3751 10.6337 27.6409 10.215 27.8435 9.96289Z" fill="#C12A29"/>
<path d="M20.3046 5.6582C22.1114 6.65577 23.9064 7.74123 25.7103 8.74895C26.397 9.13265 27.1556 9.60344 27.8451 9.9625C27.6425 10.2147 27.3767 10.6333 27.1888 10.9107L26.0371 12.6104C24.7464 14.5171 23.4432 16.4724 22.132 18.3613C22.3471 18.3043 22.5802 18.2938 22.8013 18.2721C23.7924 18.1748 25.1672 18.1596 26.0478 18.669C26.3651 18.8527 26.6348 19.1334 26.7303 19.4948C26.8935 20.1134 26.5969 20.7988 26.2874 21.3217C24.786 23.8563 19.8817 26.5216 17.298 28.0489C16.7342 28.3808 16.1735 28.718 15.6159 29.0602C15.0969 29.3815 14.5983 29.7175 14.047 29.9825C13.8678 30.0686 13.6829 30.1709 13.5061 30.2639C12.4359 30.8159 11.3714 31.3788 10.3127 31.9524L10.2727 31.9044C10.5775 31.7419 11.2513 31.2627 11.5693 31.0504L14.0954 29.3712L18.4228 26.4986L19.7866 25.5931C20.62 25.043 21.5003 24.4626 22.1746 23.7161C22.6613 23.1771 22.9417 22.3664 21.841 22.6945C21.0572 22.9282 20.2768 23.2562 19.528 23.5877L16.4302 24.9668C15.918 25.1941 15.2936 25.4947 14.7802 25.6808C14.554 25.7648 14.3189 25.8225 14.0796 25.8532C13.1232 25.9818 12.1402 25.8021 11.3688 25.1995C10.5975 24.5967 10.2083 23.7365 10.0844 22.7794C10.0162 22.2517 10.0327 21.7928 10.0928 21.2674C10.5963 16.8661 14.986 13.5872 18.1132 10.9201C18.6324 10.4791 19.1477 10.0336 19.6593 9.58374C19.8529 9.41354 20.2442 9.09751 20.3884 8.90135C20.3723 8.73831 20.3694 8.58347 20.3669 8.42027C20.3529 7.4979 20.3052 6.58091 20.3046 5.6582Z" fill="#F7F7F7"/>
<path d="M15.4093 18.6687C15.7598 18.4763 16.1586 18.3032 16.5275 18.1453C17.8824 17.565 19.2236 16.9149 20.5824 16.3477C20.5805 16.8159 20.5947 17.2935 20.6065 17.7624C20.6133 18.0284 20.6048 18.4391 20.6359 18.6962C20.6392 18.9869 20.6555 19.3949 20.638 19.6762C20.5756 19.4087 20.6355 19.0629 20.6108 18.7848C20.5995 18.7753 20.5883 18.7658 20.577 18.7564C20.01 18.9593 19.3792 19.2912 18.8127 19.5263C18.4808 19.664 18.0777 19.8499 17.7543 20.0099C17.7726 20.0008 17.5006 20.2714 17.4646 20.3031C17.0167 20.6926 16.5721 21.0858 16.131 21.4828C15.4916 22.0576 14.8421 22.5933 14.1887 23.1506C13.5473 23.6976 12.98 24.194 12.2972 24.6962C12.2793 24.7517 12.2966 24.7925 12.3262 24.8477C12.4933 25.1596 12.763 25.4215 13.0856 25.5691C13.1515 25.5993 13.3509 25.6792 13.3922 25.7101C13.0873 25.6765 12.6761 25.3741 12.4814 25.1279C11.9881 24.5043 11.9844 23.6713 12.0606 22.9176C12.1009 22.5188 12.3191 21.7482 12.5404 21.4089C12.565 21.3051 12.7597 20.9835 12.8193 20.8896C13.3624 20.0315 14.1127 19.2873 15.0165 18.8155C15.1534 18.7441 15.2594 18.7032 15.4093 18.6687Z" fill="#D93C31"/>
<path d="M12.5404 21.4091C12.565 21.3053 12.7597 20.9837 12.8193 20.8898C13.3624 20.0317 14.1127 19.2875 15.0165 18.8157C15.1534 18.7443 15.2594 18.7034 15.4093 18.6689C14.9836 19.1541 14.8269 19.2399 14.6229 19.9045C14.5969 20.1192 14.5814 20.2868 14.6469 20.4984C14.7632 20.8795 15.1621 21.0313 15.5284 20.9112C15.9894 20.7599 16.4541 20.5297 16.9005 20.3313L19.0364 19.3809C19.5594 19.1468 20.0998 18.8915 20.6359 18.6964C20.6392 18.9871 20.6555 19.3951 20.638 19.6764C20.5756 19.4089 20.6355 19.0631 20.6108 18.785C20.5995 18.7755 20.5883 18.766 20.577 18.7566C20.01 18.9595 19.3792 19.2914 18.8127 19.5265C18.4808 19.6642 18.0777 19.8501 17.7543 20.0101C17.7726 20.001 17.5006 20.2716 17.4646 20.3033C17.0167 20.6928 16.5721 21.086 16.131 21.483C15.4916 22.0578 14.8421 22.5935 14.1887 23.1508C13.5473 23.6978 12.98 24.1942 12.2972 24.6965C12.2793 24.7519 12.2966 24.7927 12.3262 24.8479C12.4933 25.1598 12.763 25.4217 13.0856 25.5693C13.1515 25.5995 13.3509 25.6794 13.3922 25.7103C13.0873 25.6767 12.6761 25.3743 12.4814 25.1281C11.9881 24.5045 11.9844 23.6715 12.0606 22.9179C12.1009 22.519 12.3191 21.7485 12.5404 21.4091Z" fill="#C2C2C3"/>
<path d="M12.5411 21.4091C12.5658 21.3053 12.7605 20.9837 12.82 20.8898C13.3632 20.0317 14.1134 19.2875 15.0173 18.8157C15.1542 18.7443 15.2601 18.7034 15.41 18.6689C14.9844 19.1541 14.8277 19.2399 14.6236 19.9045L14.5868 19.9103C14.5773 19.9479 14.5645 20.0292 14.5411 20.0482C14.4328 20.1369 14.2752 20.2053 14.1699 20.2959C13.664 20.7313 13.1479 21.2089 12.5935 21.5783C12.5542 21.6044 12.4988 21.6298 12.4541 21.6462C12.5013 21.5511 12.5257 21.5153 12.5411 21.4091Z" fill="#9C9C9E"/>
<path d="M10.2723 31.9043L10.3122 31.9523L10.0949 32.077L10.0554 32.0826L10.0479 32.063C10.107 31.9994 10.1969 31.9512 10.2723 31.9043Z" fill="#FCBBAC"/>
</svg>
