<svg width="157" height="56" viewBox="0 0 157 56" fill="none" xmlns="http://www.w3.org/2000/svg">
<path d="M41.1935 17.4688H57.065V20.3918H50.8243V36.8238H47.3927V20.3918H41.1797V17.4688H41.1935ZM56.387 22.8095H59.3205V25.514H59.3759C59.588 24.6765 60.1958 23.9421 60.8703 23.4242C61.6108 22.8285 62.5545 22.427 63.5132 22.427C63.9172 22.427 64.3035 22.4731 64.7033 22.509V25.4867C64.2605 25.4048 63.79 25.35 63.3472 25.35C62.3019 25.35 61.3219 25.793 60.6351 26.5795C59.7983 27.5706 59.5004 28.8731 59.5004 30.1445V36.8102H56.3731V22.8095H56.387ZM79.0803 36.8238H76.0084V34.8706H75.9531C75.1787 36.2903 73.5192 37.2064 71.9125 37.2064C70.0445 37.2064 68.6884 36.7556 67.8582 35.8404C67.0279 34.9253 66.6128 33.5457 66.6128 31.7017V22.8095H69.7401V31.4011C69.7401 32.6304 69.9753 33.5047 70.4596 34.0101C71.3279 34.9429 73.0052 34.9868 74.1127 34.4744C74.9658 34.0798 75.5307 33.3707 75.7732 32.4665C75.8977 32.0021 75.9531 31.4967 75.9531 30.9503V22.8232H79.0803V36.8238ZM84.4077 32.33C84.5046 33.2315 84.8505 33.8598 85.4455 34.2285C86.4204 34.7973 87.5254 34.826 88.6143 34.7066C89.6214 34.5963 90.8139 34.1037 90.7729 32.931C90.7433 32.0842 89.9934 31.6197 89.2785 31.3465C88.2626 30.9907 87.1868 30.8227 86.1374 30.5953C85.0498 30.3652 83.905 30.0587 82.9963 29.3932C82.0216 28.7104 81.5849 27.6059 81.5849 26.4429C81.5849 25.0511 82.384 23.9485 83.5775 23.2875C84.7698 22.643 86.1783 22.427 87.5211 22.427C88.8648 22.427 90.2964 22.6597 91.4371 23.4104C92.6118 24.1537 93.288 25.3824 93.4574 26.7434H90.1917C90.0395 26.0058 89.7074 25.5003 89.1678 25.2544C88.6281 24.9949 88.0054 24.8721 87.3135 24.8721C86.5155 24.8721 85.5838 24.9814 84.9889 25.5687C84.5518 26.0333 84.6516 26.8273 85.1134 27.2351C85.7855 27.8287 86.7628 28.0497 87.618 28.2185C88.7569 28.4433 89.8878 28.6831 90.9943 29.038C92.0155 29.3657 92.962 29.9883 93.4989 30.9368C94.1405 32.0703 94.0264 33.7163 93.319 34.7887C92.506 35.9925 91.1693 36.6823 89.7766 36.9878C88.24 37.3249 86.5827 37.3436 85.0581 36.9332C83.527 36.521 82.3976 35.7104 81.7648 34.5154C81.4465 33.9144 81.2804 33.1905 81.2528 32.3573H84.4077V32.33ZM94.7304 22.8095H97.0966V18.6025H100.224V22.8095H103.047V25.1179H100.224V32.6031C100.224 32.9309 100.238 33.2042 100.265 33.4501C100.293 33.6823 100.362 33.8872 100.459 34.0511C100.556 34.215 100.708 34.3378 100.916 34.4198C101.123 34.5017 101.386 34.5428 101.746 34.5428C101.967 34.5428 102.189 34.5427 102.41 34.529C102.632 34.5154 102.853 34.4881 103.074 34.4334V36.8238C102.728 36.8648 102.382 36.8922 102.064 36.9332C101.732 36.9741 101.4 36.9878 101.054 36.9878C100.224 36.9878 99.5596 36.9058 99.0615 36.7556C98.5633 36.6054 98.1621 36.3731 97.8853 36.0726C97.5947 35.7721 97.4148 35.4032 97.3041 34.9525C97.2073 34.5017 97.1381 33.9827 97.1243 33.409V25.1452H94.7581V22.8095H94.7304ZM105.261 22.8095H108.222V24.708H108.277C108.72 23.8885 109.329 23.3149 110.118 22.9598C110.906 22.6046 111.75 22.427 112.677 22.427C113.798 22.427 114.767 22.6183 115.597 23.0144C116.427 23.3969 117.119 23.9295 117.673 24.6124C118.226 25.2954 118.628 26.0877 118.904 26.9892C119.181 27.8908 119.319 28.8606 119.319 29.885C119.319 30.8275 119.195 31.7426 118.946 32.6167C118.697 33.5046 118.323 34.2833 117.825 34.9662C117.327 35.6492 116.69 36.1819 115.915 36.5917C115.141 37.0015 114.241 37.2064 113.189 37.2064C112.733 37.2064 112.276 37.1654 111.82 37.0834C111.363 37.0015 110.92 36.8649 110.505 36.6873C110.09 36.5097 109.689 36.2775 109.343 35.9907C108.983 35.7038 108.692 35.3759 108.443 35.0071H108.388V42.0007H105.261V22.8095ZM116.192 29.8304C116.192 29.202 116.109 28.5874 115.943 27.9864C115.777 27.3854 115.528 26.8663 115.196 26.4018C114.864 25.9374 114.449 25.5687 113.964 25.2955C113.466 25.0223 112.899 24.8721 112.262 24.8721C110.948 24.8721 109.952 25.3228 109.287 26.2243C108.623 27.1258 108.291 28.3278 108.291 29.8304C108.291 30.5406 108.374 31.1963 108.554 31.7973C108.734 32.3983 108.983 32.9174 109.343 33.3544C109.689 33.7915 110.104 34.1329 110.588 34.3788C111.072 34.6383 111.64 34.7613 112.276 34.7613C112.996 34.7613 113.591 34.611 114.089 34.3242C114.587 34.0373 114.988 33.655 115.307 33.2042C115.625 32.7398 115.86 32.2207 115.998 31.6334C116.123 31.0459 116.192 30.445 116.192 29.8304ZM121.713 17.4688H124.841V20.3918H121.713V17.4688ZM121.713 22.8095H124.841V36.8238H121.713V22.8095ZM127.636 17.4688H130.763V36.8238H127.636V17.4688ZM140.352 37.2064C138.379 37.2064 136.457 36.5504 135.066 35.1165C133.737 33.6845 133.184 31.7257 133.184 29.8029C133.184 27.8907 133.745 25.9399 135.066 24.5168C136.416 23.0638 138.408 22.427 140.352 22.427C142.325 22.427 144.247 23.0829 145.638 24.5168C146.96 25.9399 147.52 27.8907 147.52 29.8029C147.52 31.7257 146.968 33.6845 145.638 35.1165C144.289 36.5695 142.296 37.2064 140.352 37.2064ZM140.352 34.7613C143.045 34.7613 144.393 32.2092 144.393 29.8029C144.393 27.396 143.038 24.8721 140.352 24.8721C137.67 24.8721 136.312 27.4002 136.312 29.8029C136.312 32.2104 137.659 34.7613 140.352 34.7613ZM148.433 22.8095H150.8V18.6025H153.927V22.8095H156.75V25.1179H153.927V32.6031C153.927 33.0802 153.911 33.626 154.162 34.0511C154.418 34.485 154.996 34.5428 155.449 34.5428C155.892 34.5428 156.334 34.5427 156.777 34.4334V36.8238C156.107 36.9032 155.433 36.9878 154.757 36.9878C153.927 36.9878 153.263 36.9058 152.764 36.7556C152.266 36.6054 151.865 36.3731 151.588 36.0726C151.298 35.7721 151.118 35.4032 151.007 34.9525C150.91 34.5017 150.841 33.9827 150.827 33.409V25.1452H148.461V22.8095H148.433Z" fill="white"/>
<path d="M37.5408 17.468H23.2053L18.7773 4L14.3355 17.468L0 17.4543L11.6096 25.7865L7.16777 39.2408L18.7773 30.9224L30.3731 39.2408L25.9451 25.7865L37.5408 17.468Z" fill="#00B67A"/>
<path d="M26.9453 28.8312L25.949 25.7852L18.7812 30.921L26.9453 28.8312Z" fill="#005128"/>
</svg>
