<svg width="91" height="22" viewBox="0 0 91 22" fill="none" xmlns="http://www.w3.org/2000/svg">
<g clip-path="url(#clip0_1259_5131)">
<path d="M24.8441 16.629H22.0944L21.9962 9.19846C21.9962 8.08551 20.5559 7.36537 19.6394 7.2999C18.7228 7.23443 16.9879 7.82364 16.9552 9.10026L16.8243 16.629H14.0092C14.3365 12.3736 12.5361 6.18695 17.7736 4.91033C19.8358 4.38659 21.8653 4.71393 23.4038 6.41609C24.8441 4.94307 26.6444 4.41932 28.6084 4.7794C34.4351 5.82688 32.6347 12.0136 32.8966 16.5963H30.0815L29.9833 9.10026C29.9833 7.98731 28.412 7.2999 27.5282 7.2999C26.579 7.2999 24.975 7.95458 24.9423 9.19846L24.8441 16.629Z" fill="#E95E32"/>
<path d="M36.8596 21.3422L34.0117 21.2767V10.4745C34.0772 7.10296 36.7614 4.77885 39.9365 4.68065C43.5373 4.54972 46.2542 7.07022 46.2214 10.7691C46.1887 13.0932 45.1412 15.2209 43.1445 16.1702C41.1477 17.1195 38.9218 17.1195 36.925 15.7119L36.8596 21.3422ZM43.3409 10.3109C43.1444 8.18317 41.5078 7.13569 39.7401 7.29936C37.9725 7.46303 36.8596 8.87058 36.8596 10.7691C36.8596 12.9296 38.2998 14.3371 40.2966 14.2389C42.2279 14.1735 43.5373 12.5695 43.3409 10.3109Z" fill="#E95E32"/>
<path d="M85.3698 16.8578C81.5072 17.1196 78.823 14.4682 78.8558 10.802C78.8558 8.51064 79.936 6.48114 81.6709 5.53186C83.7986 4.38618 86.1554 4.51711 88.1522 5.8592L88.2504 0.261719H91C91 0.294453 90.9018 11.8168 90.9018 11.8168C90.9018 14.7301 88.1194 16.7268 85.3698 16.8905V16.8578ZM88.1849 10.311C87.9885 8.1833 86.3518 7.16855 84.6169 7.33222C82.7838 7.49589 81.7036 8.90345 81.7036 10.802C81.7036 12.9624 83.1439 14.37 85.1734 14.2718C87.072 14.2063 88.414 12.6024 88.1849 10.3437V10.311Z" fill="#E95E32"/>
<path d="M70.7376 14.1087C74.0764 15.0253 73.0617 12.3084 77.5135 13.094C76.7606 15.7127 74.2728 16.8911 71.7196 16.8911C68.2171 16.8911 65.7293 14.3051 65.762 10.8026C65.762 7.23462 68.3153 4.64864 71.9815 4.74685C73.7491 4.77958 75.5167 5.46699 76.5642 6.71087C77.7099 8.08569 78.1027 9.88605 77.8735 11.7191L68.839 11.7846C69.0027 12.9303 69.8865 13.9123 70.7703 14.1415L70.7376 14.1087ZM74.6984 9.10044C74.0437 7.75836 72.898 7.33282 71.7851 7.36555C70.6066 7.36555 69.5264 7.82382 69.0354 9.10044H74.6984Z" fill="#E95E32"/>
<path d="M7.46331 16.2034C4.87734 17.349 2.25863 16.858 0 15.0577C0.42554 14.3703 0.949281 13.5519 1.40755 12.8972C3.17518 14.3703 6.54676 14.6321 6.4813 13.2246C6.4813 12.93 5.99029 12.3408 5.69568 12.2426L2.4223 11.1623C0.883813 10.6713 0.0982014 9.39472 0.130935 7.98717C0.163669 6.44868 1.21115 5.17206 2.88058 4.87746C5.20468 4.45192 7.36511 4.87746 9.26367 6.48141L7.82338 8.57638C6.5795 7.6271 3.43705 6.54688 3.01151 7.95443C2.94604 8.15084 3.37158 8.67458 3.60072 8.74005L7.00504 9.853C8.34712 10.2785 9.26367 11.4897 9.36187 12.5699C9.52554 13.9775 8.96907 15.5159 7.49604 16.1706L7.46331 16.2034Z" fill="#E95E32"/>
<path d="M61.2785 7.36483L58.6271 7.59396V16.563L55.812 16.6285V7.7249C54.8627 7.39756 54.5681 7.03749 54.5026 6.38281C54.4372 5.4008 54.8627 4.94252 55.7793 4.61519C56.1721 1.89828 58.3325 -0.262152 61.6059 0.0979203C61.7041 0.687129 61.6713 1.93101 61.6059 2.55296C59.9365 2.65116 58.7908 3.30583 58.758 4.81159L61.2785 4.94252V7.36483Z" fill="#E95E32"/>
<path d="M49.9514 16.5959L47.1035 16.6286V0.261719H49.9514V16.5959Z" fill="#E95E32"/>
<path d="M12.9626 16.6284H10.1148L10.082 5.00785L12.9299 4.94238L12.9626 16.6284Z" fill="#E95E32"/>
<path d="M53.8806 16.6284H51.0327L51 5.00785L53.8806 4.94238V16.6284Z" fill="#E95E32"/>
<path d="M65.0095 16.6284H62.1616L62.1289 5.00785L65.0095 4.94238V16.6284Z" fill="#E95E32"/>
</g>
<defs>
<clipPath id="clip0_1259_5131">
<rect width="91" height="21.3424" fill="white"/>
</clipPath>
</defs>
</svg>
