<svg width="130" height="32" viewBox="0 0 130 32" fill="none" xmlns="http://www.w3.org/2000/svg">
<path fill-rule="evenodd" clip-rule="evenodd" d="M68.6379 0.930284L63.8736 1.84647L63.8231 2.28572C63.7806 2.65507 63.8449 2.73936 64.2269 2.81524C65.6461 3.09723 65.9651 3.2862 66.3566 4.07716C66.7051 4.78109 66.7543 5.17164 66.8974 8.36447C66.984 10.2963 67.0187 16.1795 66.9748 21.438L66.8947 30.9988L67.9682 31.2003C76.3583 32.7748 81.0677 32.0205 84.5593 28.543C86.5691 26.5413 87.5581 24.2935 87.8344 21.0989C88.3365 15.2958 85.7473 10.7699 81.168 9.44552C79.2829 8.9003 76.4489 9.17016 74.3657 10.093L73.4306 10.5073L73.5379 5.24671C73.5968 2.35318 73.5904 -0.00774658 73.5237 1.91027e-05C73.4568 0.00778479 71.2583 0.426485 68.6379 0.930284ZM0 1.27036V1.90747L0.76713 2.01149C4.26879 2.48569 4.5897 3.67658 4.58065 16.1645C4.57387 25.7276 4.32516 27.9995 3.1567 29.1699C2.63683 29.6908 2.28427 29.824 0.524878 30.164C0.0392447 30.2579 0 30.3129 0 30.8997V31.534H8.39805H16.7961V30.8869C16.7961 30.531 16.7415 30.2383 16.675 30.2365C16.0211 30.2192 14.2589 29.8651 13.8991 29.6787C13.2087 29.321 12.6276 28.5344 12.3518 27.5839C12.0283 26.4692 11.8002 23.2605 11.7943 19.7427L11.7896 16.9305L13.8487 17.0127C16.1328 17.1038 16.6278 17.24 17.4155 17.9944C18.0555 18.6074 18.3701 19.1707 18.7427 20.3709C19.0143 21.246 19.03 21.2615 19.6863 21.3105L20.3536 21.3603L20.311 16.1334L20.2684 10.9064L19.6718 10.8568C19.0865 10.8081 19.0707 10.822 18.8441 11.5848C18.2398 13.6197 17.3811 14.6869 16.0902 15.007C15.7234 15.098 14.5876 15.1902 13.5661 15.2119L11.7088 15.2513L11.7729 10.3454C11.8081 7.64711 11.8808 4.84937 11.9344 4.12829L12.0318 2.81718L14.4543 2.76929C18.7745 2.68387 20.4502 3.12377 22.0547 4.76459C22.8666 5.59455 24 7.55781 24.3863 8.80323C24.6707 9.71974 24.7529 9.76828 25.6116 9.52738L26.3697 9.3148L26.2673 7.76473C26.211 6.91212 26.1645 4.95873 26.164 3.42388L26.1632 0.633084H13.0816H0V1.27036ZM32.2619 9.05125C27.8505 9.7953 24.4504 12.9991 23.4015 17.4C23.1087 18.6289 23.0719 19.1576 23.1439 21.0989C23.2807 24.7847 24.0703 26.8437 26.1603 28.9638C28.2501 31.0838 30.5122 31.9201 34.1575 31.9201C36.6586 31.9201 37.9124 31.6528 39.8783 30.7005C42.4896 29.4357 44.5765 26.7733 45.4025 23.653C45.8721 21.8784 45.8673 18.7082 45.3923 16.8925C44.259 12.5609 41.6421 10.0123 37.4335 9.14152C36.1315 8.87199 33.5874 8.82766 32.2619 9.05125ZM50.7517 9.82264L46.0278 10.7322V11.1624C46.0278 11.5584 46.1035 11.6073 46.9877 11.7815C48.1728 12.0151 48.6578 12.5248 48.9634 13.8574C49.2657 15.1758 49.2646 26.6889 48.9621 28.0168C48.6586 29.3488 48.1733 29.8591 46.9877 30.0927L46.0278 30.2818V30.9079V31.534H52.8916H59.7554V30.9078V30.2815L58.6567 30.1731C57.3338 30.0425 56.5932 29.6331 56.2676 28.8523C55.8997 27.9704 55.6801 24.1041 55.743 19.6186C55.8078 15.007 55.782 15.0993 57.1357 14.6372C58.6202 14.1305 61.1081 14.4283 62.3833 15.2654L62.7824 15.5273L63.9933 12.5697C64.7574 10.704 65.1514 9.54502 65.0608 9.43015C64.7894 9.08587 63.499 8.84853 62.2302 8.90936C59.9645 9.01808 58.1656 10.1533 56.6891 12.406L55.8793 13.6417V11.263C55.8793 9.46008 55.8304 8.88768 55.6775 8.89868C55.5665 8.90661 53.3498 9.3224 50.7517 9.82264ZM99.0197 9.06645C93.4863 9.98717 89.7946 14.6167 89.7946 20.6346C89.7946 22.577 90.1781 24.2466 91.0318 26.0189C92.7323 29.5497 96.1304 31.6924 100.477 31.9744C103.834 32.1923 107.234 31.0069 109.44 28.8487L110.348 27.9607L109.977 27.5645L109.605 27.1683L109.107 27.5001C107.536 28.5475 105.448 28.9657 103.332 28.6568C99.3846 28.0804 97.0844 25.2922 96.6629 20.5731L96.5581 19.4002H103.606H110.654L110.545 18.3081C110.03 13.1483 107.627 9.98378 103.568 9.12243C102.363 8.86649 100.369 8.84206 99.0197 9.06645ZM119.026 9.11548C116.241 9.70583 114.178 11.1462 113.102 13.2523C112.684 14.0689 112.647 14.2887 112.647 15.9218C112.647 17.5435 112.687 17.7833 113.099 18.6241C113.906 20.2701 115.574 21.443 118.703 22.5656C121.535 23.5812 123.085 24.7172 123.315 25.9439C123.836 28.7235 121.174 30.7264 118.136 29.8416C116.246 29.2912 114.955 27.9934 113.757 25.4402L113.061 23.9573L112.529 24.1207L111.997 24.2843L112.042 26.6554C112.067 27.9594 112.128 29.408 112.177 29.8746L112.266 30.7228L113.345 31.0427C115.558 31.6989 117.239 31.9249 119.914 31.926C122.129 31.9268 122.689 31.8733 123.828 31.5517C127.518 30.5104 129.524 28.0545 129.524 24.5773C129.524 22.7695 129.198 21.8549 128.148 20.7192C127.177 19.6681 126.017 18.9873 123.548 18.0179C119.685 16.501 118.54 15.5217 118.546 13.7377C118.553 11.7047 119.777 10.4921 121.807 10.5091C124.044 10.5277 125.835 12.0294 126.881 14.7629C127.126 15.4003 127.333 15.938 127.343 15.9579C127.353 15.9776 127.612 15.9248 127.918 15.8404L128.474 15.6867L128.371 13.4584C128.314 12.2328 128.259 10.9629 128.249 10.6366C128.232 10.055 128.212 10.0365 127.222 9.7178C125.526 9.17113 124.528 9.0176 122.256 8.95401C120.801 8.91341 119.727 8.96712 119.026 9.11548ZM32.8311 10.6778C31.6639 11.2567 30.7918 12.9829 30.3603 15.5694C30.0754 17.2767 29.9828 21.2921 30.1857 23.1542C30.7102 27.9723 32.2467 30.546 34.6068 30.5598C36.4484 30.5704 37.7321 28.945 38.3731 25.7907C38.9167 23.1159 38.8237 17.3952 38.1974 14.9865C37.5932 12.6626 36.5785 11.0451 35.4215 10.5607C34.6609 10.2423 33.6138 10.2897 32.8311 10.6778ZM99.7238 10.5568C99.1396 10.8223 98.3145 11.7317 97.8757 12.5932C97.4234 13.4812 96.9146 15.4099 96.7948 16.6903L96.6927 17.7823H100.188H103.684V16.8232C103.684 14.3641 103.068 12.0155 102.163 11.0268C101.761 10.5877 101.501 10.4559 100.933 10.4026C100.521 10.3641 100.002 10.4303 99.7238 10.5568ZM74.8168 11.6455C74.3512 11.7087 73.8488 11.8073 73.7002 11.8644C73.4507 11.9603 73.4384 12.6461 73.5388 20.9677C73.6138 27.1933 73.7028 30.0343 73.8271 30.1844C74.1244 30.5433 76.0943 30.4664 76.9523 30.0624C79.4622 28.8804 81.0609 24.5155 80.8571 19.4002C80.7642 17.0682 80.5023 15.8143 79.8278 14.4744C79.1836 13.1946 78.5463 12.4939 77.6348 12.063C76.6348 11.5905 75.958 11.4902 74.8168 11.6455Z" fill="#111111"/>
</svg>
