<svg width="53" height="32" viewBox="0 0 53 32" fill="none" xmlns="http://www.w3.org/2000/svg">
<g clip-path="url(#clip0_1259_5730)">
<path d="M25.3314 27.1335C25.4093 26.9222 25.5297 26.7115 25.6062 26.5088C25.9182 25.6823 26.3171 24.9042 26.6889 24.1042C26.8766 23.7001 27.0367 23.2777 27.2174 22.8649C27.4275 22.3852 27.6733 21.9216 27.8822 21.4482C28.1914 20.7479 28.4657 20.0384 28.8111 19.3515C28.9296 19.1159 29.0444 18.8145 29.202 18.609C29.4393 18.5071 31.5123 18.5607 31.9167 18.5678C31.8952 18.9798 31.9105 19.5152 31.9111 19.9351L31.9117 22.3836L31.9023 30.9279C31.5636 30.9288 29.7873 30.9608 29.5987 30.8744C29.5248 30.6388 29.5506 29.6295 29.5508 29.3407L29.5544 26.953L29.5596 24.8141C29.5599 24.6102 29.6039 23.6566 29.4671 23.5629C29.3475 23.6564 29.0904 24.4266 29.0044 24.6254L27.1606 28.9872C27.0499 29.2544 26.966 29.5327 26.8594 29.7968C26.7039 30.1825 26.5284 30.5742 26.3615 30.9558C25.8552 31.0076 24.7973 30.9973 24.2886 30.945C23.9332 30.1318 23.619 29.3243 23.2921 28.5009C22.8832 27.6047 22.5187 26.7241 22.1769 25.8004C21.8898 25.0245 21.4519 24.2772 21.1927 23.4783C21.1135 24.0277 21.1582 25.2557 21.1514 25.8564C21.1322 27.5523 21.1818 29.2721 21.1375 30.9683C20.6708 30.9764 20.204 30.9789 19.7372 30.9759C19.4531 30.9738 19.0415 30.9567 18.7773 30.9901C18.8013 29.9703 18.7838 28.8811 18.784 27.858L18.7843 22.2139L18.7816 19.9617C18.7812 19.5328 18.7696 18.9846 18.7995 18.5643C19.62 18.6118 20.6202 18.4959 21.4232 18.6152C21.6064 18.6424 22.4346 20.6947 22.54 20.9593C22.7522 21.492 23.0711 22.0182 23.2792 22.5398C23.6062 23.3593 23.9488 24.1337 24.3317 24.9288C24.6543 25.7075 24.9584 26.3794 25.3314 27.1335Z" fill="#111111"/>
<path d="M43.6688 1.03784L46.1503 1.04034C46.1247 1.74203 46.1459 2.56708 46.1459 3.28126L46.1422 7.68235L47.6469 7.69423C47.8241 7.6951 48.4462 7.70664 48.5769 7.67254C49.3975 7.45851 49.6797 6.89895 50.6706 7.08742C51.1328 7.17526 51.535 7.47489 51.8034 7.86835C52.0709 8.2527 52.1716 8.72882 52.0825 9.18851C51.9203 10.0431 51.2628 10.7082 50.3553 10.6988C49.6856 10.6919 49.2344 10.2245 48.6328 10.111C47.8975 9.97223 46.8416 10.1946 46.1269 10.0545C46.0719 11.7513 46.1244 13.5549 46.1063 15.2695C45.48 15.2659 44.2516 15.218 43.6831 15.2731L43.6869 10.1375C42.9325 10.1707 41.8734 10.1345 41.0884 10.1338C40.5494 10.1317 40.0106 10.1329 39.4716 10.1373C39.1512 10.1406 38.6653 10.1602 38.3634 10.1265C38.3891 10.6919 38.3703 11.3981 38.3703 11.9709L38.3628 15.268C37.6078 15.2704 36.69 15.2279 35.9566 15.2656C35.9931 14.8481 35.9634 13.869 35.9634 13.4214L35.9628 9.68904L35.9631 5.2907C35.9634 4.59576 35.9975 3.62998 35.9531 2.96755C36.7072 2.94264 37.5347 2.95315 38.2875 2.97038C38.2575 3.41639 38.2787 4.11992 38.2787 4.57932L38.2775 7.67839C40.0416 7.72201 41.9203 7.63476 43.6584 7.69904L43.6688 1.03784Z" fill="#111111"/>
<path d="M27.8816 2.66889C30.4232 2.51275 32.7027 3.52496 33.7508 5.96677C33.8739 6.25374 33.9392 6.62327 34.0099 6.92955C33.3483 6.93977 32.1599 6.97158 31.5477 6.89133C30.7262 5.59183 29.9307 4.83068 28.3318 4.95683C27.3723 4.99752 26.4152 5.36139 25.7624 6.08821C23.8959 8.16249 24.5215 12.3993 27.4332 13.1676C29.0444 13.5927 30.1774 13.0838 31.2165 11.8627C31.3886 11.6641 31.4917 11.5125 31.6402 11.2935C32.4292 11.2809 33.2161 11.3028 34.0033 11.291C33.8146 12.2941 33.6361 12.8725 32.9511 13.6925C31.9083 14.9416 30.549 15.4029 28.973 15.5347C26.9474 15.7041 25.2167 15.1704 23.8338 13.6663C22.9361 12.6763 22.3846 11.4212 22.2625 10.0904C22.1635 8.92518 22.2315 7.56008 22.6674 6.47614C23.5992 4.1588 25.4285 2.87161 27.8816 2.66889Z" fill="#111111"/>
<path d="M46.8249 18.3223C46.8555 18.3187 46.8859 18.3157 46.9165 18.3134C47.823 18.2457 49.2096 18.45 49.9199 19.0803C51.0065 20.045 51.0412 20.6729 51.1405 22.0019L48.8099 22.0021C48.7018 21.2166 47.9074 20.4911 47.1084 20.4599C45.8605 20.4112 45.3218 22.1128 46.3549 22.8251C46.7534 23.0879 47.3302 23.3021 47.779 23.4698C49.7274 24.1976 51.6202 24.947 51.5499 27.3857C51.5224 28.3436 51.274 29.2943 50.5702 30.0221C49.5424 31.0848 48.6755 31.2785 47.243 31.2666C45.7699 31.2078 44.2855 30.5134 43.5596 29.2015C43.1899 28.5331 43.1534 27.9497 43.0527 27.2139C43.8102 27.2523 44.5793 27.1856 45.3812 27.2419C45.8912 28.3175 46.2943 29.2088 47.6709 29.0081C48.0465 28.9534 48.5146 28.9336 48.7565 28.5867C48.9955 28.2436 49.143 27.7979 49.0787 27.3797C48.9665 26.7006 48.3846 26.4551 47.8274 26.2115C46.7996 25.7182 45.8612 25.5393 44.9199 24.8648C43.1637 23.6061 42.848 21.3821 44.1393 19.663C44.8284 18.7456 45.7462 18.4812 46.8249 18.3223Z" fill="#111111"/>
<path d="M34.6152 18.5774C36.7905 18.6038 39.0006 18.5444 41.173 18.5856C41.2462 18.6706 41.2727 18.6857 41.3774 18.7214C41.4362 19.0313 41.4712 20.2992 41.354 20.5652C41.028 20.9074 37.3565 20.5469 37.0046 20.7726C36.9777 21.6426 37.0105 22.5146 36.984 23.3841C38.243 23.4321 39.6618 23.4081 40.9321 23.4048C40.9418 24.1524 40.9402 24.9001 40.9274 25.6476C39.7099 25.5573 38.1784 25.7105 37.0102 25.6224C37.0015 26.6312 37.0234 27.6629 36.9968 28.6688C38.4921 28.7061 40.0781 28.6818 41.5799 28.6827C41.5909 29.4358 41.5899 30.1891 41.5765 30.9422C40.9718 30.9809 40.1793 30.9591 39.5634 30.9585L36.0177 30.9603C35.599 30.9623 35.0099 30.9372 34.6159 30.963L34.6152 18.5774Z" fill="#111111"/>
<path d="M13.7186 2.94195C16.021 2.90798 18.3911 2.93919 20.6999 2.93751C20.7126 3.67552 20.6993 4.39352 20.7056 5.12777C19.6879 5.09748 18.6337 5.13002 17.613 5.11873C17.1426 5.11352 16.62 5.14358 16.1553 5.1128C16.1266 5.95805 16.15 6.89673 16.1423 7.75489C17.3155 7.79164 18.5351 7.7643 19.7146 7.77683C19.8026 7.82945 19.861 7.8393 19.8774 7.94048C19.9594 8.44745 19.9773 9.5028 19.8464 9.98477C18.7237 9.99089 17.5987 10.049 16.4728 9.99711C16.4144 9.99442 16.2163 10.0603 16.1498 10.0817C16.0841 10.7885 16.1297 12.2195 16.1316 12.9921C17.4302 12.9898 19.0467 12.9524 20.3288 13.0026C20.435 13.0693 20.4549 13.0528 20.4867 13.1812C20.5712 13.5222 20.6227 14.8986 20.4588 15.1573C19.7172 15.1625 13.998 15.2454 13.8334 15.1231C13.7969 15.0504 13.7575 14.9653 13.7142 14.8976C13.6856 14.3322 13.7027 13.6731 13.7039 13.0975L13.705 10.211C13.7042 7.82386 13.6673 5.31786 13.7186 2.94195Z" fill="#111111"/>
<path d="M1.51936 18.5971C2.28498 18.5662 3.08767 18.5788 3.85613 18.579L7.47922 18.579L10.141 18.5786C10.7034 18.5786 11.3559 18.5631 11.9102 18.61C11.8769 19.3179 11.9118 20.0334 11.879 20.7594C10.5953 20.6667 9.169 20.842 7.89869 20.7422C7.83485 22.7682 7.88472 25.0341 7.88544 27.0781L7.88294 30.9406C7.20181 30.9889 6.11163 30.9668 5.4391 30.926C5.4671 30.5948 5.44928 30.0575 5.44916 29.7092L5.44866 27.4812L5.4515 20.8501C4.2145 20.9402 2.76195 20.8029 1.50381 20.8391C1.51156 20.4279 1.46408 18.9069 1.51936 18.5971Z" fill="#111111"/>
<path d="M1.50852 2.96715C2.85664 2.93402 4.28436 2.95568 5.64074 2.95574L11.8848 2.96314C11.8628 3.64885 11.8802 4.44332 11.878 5.13767C10.6031 5.06776 9.09908 5.19457 7.84502 5.13042C7.87996 5.58851 7.84814 6.62454 7.84811 7.12607L7.84827 11.2343L7.84883 15.2638C7.05455 15.278 6.2088 15.2328 5.42924 15.2639C5.47049 11.9347 5.43105 8.51789 5.43114 5.1817C4.45752 5.20992 3.43517 5.16751 2.45783 5.18142C2.14029 5.18592 1.80516 5.14973 1.5 5.16395C1.51961 4.44651 1.49402 3.69598 1.50852 2.96715Z" fill="#111111"/>
<path d="M14.0648 22.0152C14.7799 22.0068 15.4951 22.0058 16.2102 22.0123C16.1881 22.678 16.2091 23.4819 16.2093 24.1566L16.2099 28.4138L16.2098 29.9906C16.2097 30.1782 16.239 30.8645 16.1486 30.9663C15.4509 30.995 14.7058 30.9435 14.0371 30.9781C14.0748 30.2881 14.0457 29.3133 14.0455 28.6082L14.0445 24.1383C14.0445 23.884 14.0307 22.1646 14.0648 22.0152Z" fill="#111111"/>
<path d="M14.8872 17.807C15.7187 17.6638 16.5085 18.2232 16.6492 19.0552C16.79 19.8871 16.2283 20.6752 15.3959 20.8135C14.567 20.9513 13.7829 20.3924 13.6427 19.5639C13.5025 18.7354 14.0591 17.9497 14.8872 17.807Z" fill="#111111"/>
<path d="M20.3281 13.0023C20.4404 12.9994 20.5925 12.9812 20.6839 13.0356C20.7793 13.2049 20.7283 14.9884 20.7224 15.2699C19.0845 15.266 15.6017 15.2738 13.7748 15.2523C13.7549 15.2327 13.7376 15.2156 13.7228 15.2011C13.6951 15.0898 13.7063 15.0113 13.7136 14.8973C13.7568 14.965 13.7963 15.0502 13.8328 15.1229C13.9974 15.2452 19.7165 15.1623 20.4581 15.1571C20.6221 14.8984 20.5706 13.522 20.4861 13.181C20.4543 13.0526 20.4343 13.0691 20.3281 13.0023Z" fill="#111111"/>
<path d="M41.1723 18.5859C41.2892 18.5864 41.4486 18.574 41.5464 18.6265C41.6298 18.7423 41.5817 20.55 41.5673 20.8166C40.9833 20.8162 37.2408 20.8748 37.0039 20.7728C37.3558 20.5471 41.0273 20.9077 41.3533 20.5654C41.4705 20.2995 41.4355 19.0315 41.3767 18.7217C41.272 18.6859 41.2455 18.6708 41.1723 18.5859Z" fill="#111111"/>
<path d="M19.7153 7.77681C19.8257 7.775 19.9849 7.75696 20.0709 7.81425C20.1169 8.06871 20.0982 9.76978 20.0868 10.1144C19.5601 10.1128 16.3787 10.1583 16.1504 10.0817C16.2169 10.0602 16.415 9.9944 16.4735 9.99709C17.5994 10.049 18.7243 9.99087 19.8471 9.98475C19.978 9.50278 19.96 8.44743 19.878 7.94046C19.8616 7.83928 19.8032 7.82943 19.7153 7.77681Z" fill="#111111"/>
</g>
<defs>
<clipPath id="clip0_1259_5730">
<rect width="52.75" height="32" fill="white"/>
</clipPath>
</defs>
</svg>
