<svg width="24" height="24" viewBox="0 0 24 24" fill="none" xmlns="http://www.w3.org/2000/svg">
<g clip-path="url(#clip0_1527_181)">
<path d="M6.71453 13.5L3.00391 16.5V4.5C3.00391 4.30109 3.08292 4.11032 3.22358 3.96967C3.36423 3.82902 3.55499 3.75 3.75391 3.75H15.7539C15.9528 3.75 16.1436 3.82902 16.2842 3.96967C16.4249 4.11032 16.5039 4.30109 16.5039 4.5V12.75C16.5039 12.9489 16.4249 13.1397 16.2842 13.2803C16.1436 13.421 15.9528 13.5 15.7539 13.5H6.71453Z" stroke="#4F46E5" stroke-width="1.39937" stroke-linecap="round" stroke-linejoin="round"/>
<path d="M7.5 13.5V17.25C7.5 17.4489 7.57902 17.6397 7.71967 17.7803C7.86032 17.921 8.05109 18 8.25 18H17.2894L21 21V9C21 8.80109 20.921 8.61032 20.7803 8.46967C20.6397 8.32902 20.4489 8.25 20.25 8.25H16.5" stroke="#4F46E5" stroke-width="1.39937" stroke-linecap="round" stroke-linejoin="round"/>
</g>
<defs>
<clipPath id="clip0_1527_181">
<rect width="24" height="24" fill="white"/>
</clipPath>
</defs>
</svg>
