<svg width="493" height="66" viewBox="0 0 493 66" fill="none" xmlns="http://www.w3.org/2000/svg">
<rect width="493" height="66" rx="10.691" fill="white"/>
<path d="M22.8035 27.64C21.7395 27.64 20.8201 27.43 20.0455 27.01C19.2708 26.5807 18.6735 25.9833 18.2535 25.218C17.8335 24.4433 17.6235 23.538 17.6235 22.502C17.6235 21.466 17.8335 20.5607 18.2535 19.786C18.6735 19.002 19.2568 18.3907 20.0035 17.952C20.7501 17.504 21.6181 17.28 22.6075 17.28C23.4101 17.28 24.1288 17.4293 24.7635 17.728C25.4075 18.0173 25.9255 18.4187 26.3175 18.932C26.7188 19.436 26.9615 20.024 27.0455 20.696H25.2255C25.1321 20.0987 24.8521 19.6273 24.3855 19.282C23.9188 18.9367 23.3355 18.764 22.6355 18.764C22.0008 18.764 21.4455 18.9133 20.9695 19.212C20.4935 19.5107 20.1248 19.9353 19.8635 20.486C19.6021 21.0367 19.4715 21.6947 19.4715 22.46C19.4715 23.244 19.6021 23.916 19.8635 24.476C20.1341 25.0267 20.5215 25.4467 21.0255 25.736C21.5388 26.0253 22.1641 26.17 22.9015 26.17C23.4708 26.17 23.9608 26.1 24.3715 25.96C24.7821 25.8107 25.1135 25.5913 25.3655 25.302L27.1155 25.988C26.5835 26.5293 25.9675 26.94 25.2675 27.22C24.5675 27.5 23.7461 27.64 22.8035 27.64ZM25.2955 25.988V23.048L25.7295 23.482H22.8875V22.054H27.1155V25.988H25.2955ZM28.4549 27.5V20.36H30.1769V22.082H30.2189V27.5H28.4549ZM30.2189 23.776L30.0369 22.082C30.2049 21.4753 30.4895 21.0133 30.8909 20.696C31.2922 20.3787 31.7729 20.22 32.3329 20.22C32.5289 20.22 32.6689 20.2387 32.7529 20.276V21.942C32.7062 21.9233 32.6409 21.914 32.5569 21.914C32.4729 21.9047 32.3702 21.9 32.2489 21.9C31.5675 21.9 31.0589 22.0493 30.7229 22.348C30.3869 22.6467 30.2189 23.1227 30.2189 23.776ZM36.8096 27.64C36.0536 27.64 35.3863 27.4813 34.8076 27.164C34.2383 26.8467 33.7949 26.408 33.4776 25.848C33.1603 25.2787 33.0016 24.63 33.0016 23.902C33.0016 23.174 33.1603 22.5347 33.4776 21.984C33.7949 21.4333 34.2383 21.004 34.8076 20.696C35.3863 20.3787 36.0536 20.22 36.8096 20.22C37.5749 20.22 38.2423 20.3787 38.8116 20.696C39.3809 21.004 39.8243 21.4333 40.1416 21.984C40.4589 22.5347 40.6176 23.174 40.6176 23.902C40.6176 24.63 40.4543 25.2787 40.1276 25.848C39.8103 26.408 39.3669 26.8467 38.7976 27.164C38.2283 27.4813 37.5656 27.64 36.8096 27.64ZM36.8096 26.226C37.1829 26.226 37.5189 26.1327 37.8176 25.946C38.1163 25.75 38.3496 25.4793 38.5176 25.134C38.6856 24.7793 38.7696 24.364 38.7696 23.888C38.7696 23.188 38.5829 22.6373 38.2096 22.236C37.8456 21.8347 37.3789 21.634 36.8096 21.634C36.2403 21.634 35.7689 21.8347 35.3956 22.236C35.0223 22.6373 34.8356 23.188 34.8356 23.888C34.8356 24.364 34.9196 24.7793 35.0876 25.134C35.2649 25.4793 35.4983 25.75 35.7876 25.946C36.0863 26.1327 36.4269 26.226 36.8096 26.226ZM43.9451 27.64C43.4504 27.64 43.0211 27.5373 42.6571 27.332C42.3024 27.1173 42.0271 26.828 41.8311 26.464C41.6444 26.1 41.5511 25.6893 41.5511 25.232V20.36H43.3151V24.868C43.3151 25.3067 43.4224 25.638 43.6371 25.862C43.8611 26.086 44.1738 26.198 44.5751 26.198C44.9391 26.198 45.2564 26.114 45.5271 25.946C45.8071 25.778 46.0264 25.5447 46.1851 25.246C46.3531 24.938 46.4371 24.5927 46.4371 24.21L46.6191 25.918C46.3858 26.4407 46.0358 26.8607 45.5691 27.178C45.1118 27.486 44.5704 27.64 43.9451 27.64ZM46.4931 27.5V25.82H46.4371V20.36H48.2151V27.5H46.4931ZM53.8783 27.64C53.197 27.64 52.6417 27.4813 52.2123 27.164C51.7923 26.8373 51.531 26.3893 51.4283 25.82L51.5683 25.806V30.37H49.8043V20.36H51.5263V21.97L51.3863 21.942C51.517 21.41 51.8157 20.99 52.2823 20.682C52.749 20.374 53.3183 20.22 53.9903 20.22C54.625 20.22 55.1757 20.374 55.6423 20.682C56.1183 20.9807 56.487 21.4053 56.7483 21.956C57.0097 22.5067 57.1403 23.1553 57.1403 23.902C57.1403 24.658 57.005 25.316 56.7343 25.876C56.4637 26.436 56.0857 26.87 55.6003 27.178C55.115 27.486 54.541 27.64 53.8783 27.64ZM53.4303 26.184C53.9997 26.184 54.4523 25.988 54.7883 25.596C55.1243 25.1947 55.2923 24.6347 55.2923 23.916C55.2923 23.1973 55.1197 22.642 54.7743 22.25C54.4383 21.858 53.9857 21.662 53.4163 21.662C52.8563 21.662 52.4037 21.8627 52.0583 22.264C51.713 22.656 51.5403 23.2113 51.5403 23.93C51.5403 24.6487 51.713 25.204 52.0583 25.596C52.4037 25.988 52.861 26.184 53.4303 26.184ZM63.1527 27.5L60.2547 17.42H62.1027L64.5667 26.674H64.0347L66.3167 17.42H68.4167L70.6707 26.674H70.1527L72.6167 17.42H74.3807L71.4827 27.5H69.4107L67.1147 18.456H67.5487L65.2247 27.5H63.1527ZM77.9701 27.64C77.2141 27.64 76.5468 27.4813 75.9681 27.164C75.3988 26.8467 74.9555 26.408 74.6381 25.848C74.3208 25.2787 74.1621 24.63 74.1621 23.902C74.1621 23.174 74.3208 22.5347 74.6381 21.984C74.9555 21.4333 75.3988 21.004 75.9681 20.696C76.5468 20.3787 77.2141 20.22 77.9701 20.22C78.7355 20.22 79.4028 20.3787 79.9721 20.696C80.5415 21.004 80.9848 21.4333 81.3021 21.984C81.6195 22.5347 81.7781 23.174 81.7781 23.902C81.7781 24.63 81.6148 25.2787 81.2881 25.848C80.9708 26.408 80.5275 26.8467 79.9581 27.164C79.3888 27.4813 78.7261 27.64 77.9701 27.64ZM77.9701 26.226C78.3435 26.226 78.6795 26.1327 78.9781 25.946C79.2768 25.75 79.5101 25.4793 79.6781 25.134C79.8461 24.7793 79.9301 24.364 79.9301 23.888C79.9301 23.188 79.7435 22.6373 79.3701 22.236C79.0061 21.8347 78.5395 21.634 77.9701 21.634C77.4008 21.634 76.9295 21.8347 76.5561 22.236C76.1828 22.6373 75.9961 23.188 75.9961 23.888C75.9961 24.364 76.0801 24.7793 76.2481 25.134C76.4255 25.4793 76.6588 25.75 76.9481 25.946C77.2468 26.1327 77.5875 26.226 77.9701 26.226ZM82.7957 27.5V20.36H84.5177V22.082H84.5597V27.5H82.7957ZM84.5597 23.776L84.3777 22.082C84.5457 21.4753 84.8303 21.0133 85.2317 20.696C85.633 20.3787 86.1137 20.22 86.6737 20.22C86.8697 20.22 87.0097 20.2387 87.0937 20.276V21.942C87.047 21.9233 86.9817 21.914 86.8977 21.914C86.8137 21.9047 86.711 21.9 86.5897 21.9C85.9083 21.9 85.3997 22.0493 85.0637 22.348C84.7277 22.6467 84.5597 23.1227 84.5597 23.776ZM87.9707 27.5V17.322H89.7347V27.5H87.9707ZM92.5767 27.5L89.3287 23.79L92.4787 20.36H94.6067L90.9667 24.112L91.0647 23.454L94.7467 27.5H92.5767ZM97.9266 27.64C96.9373 27.64 96.1486 27.4347 95.5606 27.024C94.9726 26.604 94.6506 26.0253 94.5946 25.288H96.2046C96.2513 25.652 96.4239 25.9273 96.7226 26.114C97.0213 26.3007 97.4226 26.394 97.9266 26.394C98.3839 26.394 98.7246 26.324 98.9486 26.184C99.1819 26.0347 99.2986 25.8247 99.2986 25.554C99.2986 25.358 99.2333 25.1993 99.1026 25.078C98.9719 24.9473 98.7246 24.84 98.3606 24.756L97.2126 24.49C96.4286 24.322 95.8453 24.0607 95.4626 23.706C95.0893 23.342 94.9026 22.8893 94.9026 22.348C94.9026 21.6853 95.1546 21.1673 95.6586 20.794C96.1719 20.4113 96.8766 20.22 97.7726 20.22C98.6593 20.22 99.3686 20.4113 99.9006 20.794C100.442 21.1673 100.741 21.6853 100.797 22.348H99.1866C99.1399 22.0587 98.9906 21.8393 98.7386 21.69C98.4959 21.5407 98.1599 21.466 97.7306 21.466C97.3293 21.466 97.0259 21.5313 96.8206 21.662C96.6153 21.7833 96.5126 21.9653 96.5126 22.208C96.5126 22.3947 96.5919 22.5533 96.7506 22.684C96.9093 22.8053 97.1753 22.9127 97.5486 23.006L98.7806 23.286C99.4806 23.4447 100.008 23.72 100.363 24.112C100.727 24.504 100.909 24.966 100.909 25.498C100.909 26.1793 100.647 26.7067 100.125 27.08C99.6019 27.4533 98.8693 27.64 97.9266 27.64ZM101.835 27.5V17.42H103.599V27.5H101.835ZM106.847 27.5V22.992C106.847 22.5533 106.735 22.222 106.511 21.998C106.287 21.774 105.96 21.662 105.531 21.662C105.157 21.662 104.821 21.746 104.523 21.914C104.233 22.082 104.005 22.3153 103.837 22.614C103.678 22.9127 103.599 23.258 103.599 23.65L103.417 21.942C103.659 21.4193 104.014 21.004 104.481 20.696C104.947 20.3787 105.507 20.22 106.161 20.22C106.935 20.22 107.537 20.4393 107.967 20.878C108.405 21.3167 108.625 21.9 108.625 22.628V27.5H106.847ZM113.375 27.64C112.619 27.64 111.951 27.4813 111.373 27.164C110.803 26.8467 110.36 26.408 110.043 25.848C109.725 25.2787 109.567 24.63 109.567 23.902C109.567 23.174 109.725 22.5347 110.043 21.984C110.36 21.4333 110.803 21.004 111.373 20.696C111.951 20.3787 112.619 20.22 113.375 20.22C114.14 20.22 114.807 20.3787 115.377 20.696C115.946 21.004 116.389 21.4333 116.707 21.984C117.024 22.5347 117.183 23.174 117.183 23.902C117.183 24.63 117.019 25.2787 116.693 25.848C116.375 26.408 115.932 26.8467 115.363 27.164C114.793 27.4813 114.131 27.64 113.375 27.64ZM113.375 26.226C113.748 26.226 114.084 26.1327 114.383 25.946C114.681 25.75 114.915 25.4793 115.083 25.134C115.251 24.7793 115.335 24.364 115.335 23.888C115.335 23.188 115.148 22.6373 114.775 22.236C114.411 21.8347 113.944 21.634 113.375 21.634C112.805 21.634 112.334 21.8347 111.961 22.236C111.587 22.6373 111.401 23.188 111.401 23.888C111.401 24.364 111.485 24.7793 111.653 25.134C111.83 25.4793 112.063 25.75 112.353 25.946C112.651 26.1327 112.992 26.226 113.375 26.226ZM122.274 27.64C121.593 27.64 121.038 27.4813 120.608 27.164C120.188 26.8373 119.927 26.3893 119.824 25.82L119.964 25.806V30.37H118.2V20.36H119.922V21.97L119.782 21.942C119.913 21.41 120.212 20.99 120.678 20.682C121.145 20.374 121.714 20.22 122.386 20.22C123.021 20.22 123.572 20.374 124.038 20.682C124.514 20.9807 124.883 21.4053 125.144 21.956C125.406 22.5067 125.536 23.1553 125.536 23.902C125.536 24.658 125.401 25.316 125.13 25.876C124.86 26.436 124.482 26.87 123.996 27.178C123.511 27.486 122.937 27.64 122.274 27.64ZM121.826 26.184C122.396 26.184 122.848 25.988 123.184 25.596C123.52 25.1947 123.688 24.6347 123.688 23.916C123.688 23.1973 123.516 22.642 123.17 22.25C122.834 21.858 122.382 21.662 121.812 21.662C121.252 21.662 120.8 21.8627 120.454 22.264C120.109 22.656 119.936 23.2113 119.936 23.93C119.936 24.6487 120.109 25.204 120.454 25.596C120.8 25.988 121.257 26.184 121.826 26.184Z" fill="#020617"/>
<path d="M22.2405 48.63C21.5731 48.63 20.9621 48.513 20.4075 48.279C19.8528 48.0363 19.3718 47.6983 18.9645 47.265C18.5571 46.8317 18.2365 46.3203 18.0025 45.731C17.7771 45.1417 17.6645 44.4917 17.6645 43.781C17.6645 42.845 17.8595 42.0173 18.2495 41.298C18.6395 40.5787 19.1768 40.0197 19.8615 39.621C20.5548 39.2137 21.3435 39.01 22.2275 39.01C23.1288 39.01 23.9218 39.2137 24.6065 39.621C25.2911 40.0197 25.8285 40.5787 26.2185 41.298C26.6171 42.0173 26.8165 42.8493 26.8165 43.794C26.8165 44.496 26.6995 45.146 26.4655 45.744C26.2401 46.3333 25.9238 46.8447 25.5165 47.278C25.1091 47.7027 24.6238 48.0363 24.0605 48.279C23.5058 48.513 22.8991 48.63 22.2405 48.63ZM22.2275 47.46C22.8515 47.46 23.4018 47.304 23.8785 46.992C24.3551 46.6713 24.7278 46.2337 24.9965 45.679C25.2738 45.1243 25.4125 44.4873 25.4125 43.768C25.4125 43.0573 25.2781 42.4333 25.0095 41.896C24.7408 41.35 24.3681 40.9297 23.8915 40.635C23.4148 40.3317 22.8601 40.18 22.2275 40.18C21.5948 40.18 21.0401 40.3317 20.5635 40.635C20.0955 40.9297 19.7271 41.3457 19.4585 41.883C19.1985 42.4203 19.0685 43.0487 19.0685 43.768C19.0685 44.496 19.2028 45.1373 19.4715 45.692C19.7401 46.2467 20.1085 46.68 20.5765 46.992C21.0531 47.304 21.6035 47.46 22.2275 47.46ZM30.7956 48.63C30.1629 48.63 29.5996 48.4827 29.1056 48.188C28.6116 47.8847 28.2216 47.473 27.9356 46.953C27.6583 46.433 27.5196 45.8393 27.5196 45.172C27.5196 44.5047 27.6583 43.9153 27.9356 43.404C28.2216 42.884 28.6116 42.4767 29.1056 42.182C29.5996 41.8873 30.1586 41.74 30.7826 41.74C31.3113 41.74 31.7836 41.8397 32.1996 42.039C32.6156 42.2383 32.9579 42.5157 33.2266 42.871C33.4953 43.2263 33.6686 43.6467 33.7466 44.132H32.4726C32.3859 43.742 32.1953 43.43 31.9006 43.196C31.6146 42.962 31.2506 42.845 30.8086 42.845C30.4273 42.845 30.0936 42.9403 29.8076 43.131C29.5216 43.3217 29.3006 43.5903 29.1446 43.937C28.9886 44.2837 28.9106 44.6953 28.9106 45.172C28.9106 45.64 28.9886 46.0517 29.1446 46.407C29.3006 46.7623 29.5216 47.0397 29.8076 47.239C30.0936 47.4297 30.4316 47.525 30.8216 47.525C31.2463 47.525 31.6059 47.4123 31.9006 47.187C32.2039 46.953 32.3989 46.641 32.4856 46.251H33.7596C33.6729 46.7277 33.4909 47.1437 33.2136 47.499C32.9449 47.8543 32.6026 48.1317 32.1866 48.331C31.7706 48.5303 31.3069 48.63 30.7956 48.63ZM37.6084 48.63C36.8371 48.63 36.2694 48.4523 35.9054 48.097C35.5501 47.733 35.3724 47.2 35.3724 46.498V40.349L36.7114 39.842V46.511C36.7114 46.8577 36.8024 47.1133 36.9844 47.278C37.1664 47.4427 37.4611 47.525 37.8684 47.525C38.0244 47.525 38.1631 47.512 38.2844 47.486C38.4057 47.46 38.5097 47.4297 38.5964 47.395V48.487C38.5011 48.5303 38.3667 48.565 38.1934 48.591C38.0201 48.617 37.8251 48.63 37.6084 48.63ZM34.0464 42.949V41.87H38.5964V42.949H34.0464ZM43.7297 48.5V40.427L43.9767 40.531C43.864 40.7737 43.669 41.012 43.3917 41.246C43.1143 41.48 42.7937 41.6837 42.4297 41.857C42.0657 42.0217 41.68 42.1387 41.2727 42.208V40.882C41.654 40.8213 42.0267 40.7087 42.3907 40.544C42.7547 40.3707 43.0797 40.1627 43.3657 39.92C43.6517 39.6687 43.864 39.4087 44.0027 39.14H45.0687V48.5H43.7297ZM46.1692 50.476V49.8C46.4725 49.696 46.6805 49.5357 46.7932 49.319C46.9145 49.111 46.9752 48.8077 46.9752 48.409L47.5082 48.5H46.1562V46.901H47.7552V48.11C47.7552 48.708 47.6295 49.2107 47.3782 49.618C47.1355 50.0253 46.7325 50.3113 46.1692 50.476ZM55.0861 48.63C54.3321 48.63 53.6691 48.4263 53.0971 48.019C52.5251 47.603 52.0788 47.031 51.7581 46.303C51.4374 45.5663 51.2771 44.7257 51.2771 43.781C51.2771 42.8363 51.4374 42.0087 51.7581 41.298C52.0788 40.5787 52.5251 40.0197 53.0971 39.621C53.6691 39.2137 54.3321 39.01 55.0861 39.01C55.8401 39.01 56.4988 39.2137 57.0621 39.621C57.6341 40.0197 58.0804 40.5787 58.4011 41.298C58.7218 42.0087 58.8821 42.8363 58.8821 43.781C58.8821 44.7343 58.7218 45.575 58.4011 46.303C58.0804 47.031 57.6341 47.603 57.0621 48.019C56.4901 48.4263 55.8314 48.63 55.0861 48.63ZM55.0861 47.447C55.5801 47.447 56.0004 47.2953 56.3471 46.992C56.6938 46.68 56.9538 46.251 57.1271 45.705C57.3091 45.1503 57.4001 44.5047 57.4001 43.768C57.4001 43.04 57.3091 42.4073 57.1271 41.87C56.9538 41.3327 56.6938 40.921 56.3471 40.635C56.0091 40.3403 55.5888 40.193 55.0861 40.193C54.5748 40.193 54.1458 40.3403 53.7991 40.635C53.4611 40.9297 53.2011 41.3457 53.0191 41.883C52.8458 42.4117 52.7591 43.04 52.7591 43.768C52.7591 44.5047 52.8501 45.1503 53.0321 45.705C53.2141 46.2597 53.4741 46.6887 53.8121 46.992C54.1588 47.2953 54.5834 47.447 55.0861 47.447ZM63.0764 48.63C62.4871 48.63 61.9671 48.5173 61.5164 48.292C61.0744 48.0667 60.7191 47.7417 60.4504 47.317C60.1817 46.8923 60.0127 46.3723 59.9434 45.757H61.3604C61.4384 46.3637 61.6291 46.8057 61.9324 47.083C62.2357 47.3603 62.6301 47.499 63.1154 47.499C63.4794 47.499 63.7871 47.4253 64.0384 47.278C64.2984 47.1307 64.5064 46.9053 64.6624 46.602C64.8271 46.2987 64.9484 45.913 65.0264 45.445C65.1044 44.9683 65.1434 44.4007 65.1434 43.742V42.897L65.5204 42.923C65.4337 43.3303 65.2604 43.69 65.0004 44.002C64.7404 44.3053 64.4154 44.5393 64.0254 44.704C63.6441 44.8687 63.2194 44.951 62.7514 44.951C62.1707 44.951 61.6594 44.8253 61.2174 44.574C60.7754 44.3227 60.4287 43.976 60.1774 43.534C59.9261 43.0833 59.8004 42.572 59.8004 42C59.8004 41.3933 59.9391 40.869 60.2164 40.427C60.4937 39.9763 60.8794 39.6297 61.3734 39.387C61.8761 39.1357 62.4524 39.01 63.1024 39.01C64.2551 39.01 65.1347 39.413 65.7414 40.219C66.3567 41.025 66.6644 42.1993 66.6644 43.742C66.6644 44.7733 66.5214 45.6573 66.2354 46.394C65.9581 47.122 65.5507 47.6767 65.0134 48.058C64.4847 48.4393 63.8391 48.63 63.0764 48.63ZM63.1544 43.846C63.7177 43.846 64.1684 43.69 64.5064 43.378C64.8531 43.066 65.0264 42.6327 65.0264 42.078C65.0264 41.7053 64.9441 41.376 64.7794 41.09C64.6234 40.7953 64.4024 40.5657 64.1164 40.401C63.8304 40.2277 63.4967 40.141 63.1154 40.141C62.5694 40.141 62.1317 40.3143 61.8024 40.661C61.4817 40.999 61.3214 41.4497 61.3214 42.013C61.3214 42.559 61.4817 43.001 61.8024 43.339C62.1231 43.677 62.5737 43.846 63.1544 43.846ZM67.7392 48.5V46.888H69.3382V48.5H67.7392ZM67.7392 43.794V42.182H69.3382V43.794H67.7392ZM74.1235 48.63C73.3695 48.63 72.7065 48.4263 72.1345 48.019C71.5625 47.603 71.1161 47.031 70.7955 46.303C70.4748 45.5663 70.3145 44.7257 70.3145 43.781C70.3145 42.8363 70.4748 42.0087 70.7955 41.298C71.1161 40.5787 71.5625 40.0197 72.1345 39.621C72.7065 39.2137 73.3695 39.01 74.1235 39.01C74.8775 39.01 75.5361 39.2137 76.0995 39.621C76.6715 40.0197 77.1178 40.5787 77.4385 41.298C77.7591 42.0087 77.9195 42.8363 77.9195 43.781C77.9195 44.7343 77.7591 45.575 77.4385 46.303C77.1178 47.031 76.6715 47.603 76.0995 48.019C75.5275 48.4263 74.8688 48.63 74.1235 48.63ZM74.1235 47.447C74.6175 47.447 75.0378 47.2953 75.3845 46.992C75.7311 46.68 75.9911 46.251 76.1645 45.705C76.3465 45.1503 76.4375 44.5047 76.4375 43.768C76.4375 43.04 76.3465 42.4073 76.1645 41.87C75.9911 41.3327 75.7311 40.921 75.3845 40.635C75.0465 40.3403 74.6261 40.193 74.1235 40.193C73.6121 40.193 73.1831 40.3403 72.8365 40.635C72.4985 40.9297 72.2385 41.3457 72.0565 41.883C71.8831 42.4117 71.7965 43.04 71.7965 43.768C71.7965 44.5047 71.8875 45.1503 72.0695 45.705C72.2515 46.2597 72.5115 46.6887 72.8495 46.992C73.1961 47.2953 73.6208 47.447 74.1235 47.447ZM82.7629 48.63C82.0089 48.63 81.3459 48.4263 80.7739 48.019C80.2019 47.603 79.7555 47.031 79.4349 46.303C79.1142 45.5663 78.9539 44.7257 78.9539 43.781C78.9539 42.8363 79.1142 42.0087 79.4349 41.298C79.7555 40.5787 80.2019 40.0197 80.7739 39.621C81.3459 39.2137 82.0089 39.01 82.7629 39.01C83.5169 39.01 84.1755 39.2137 84.7389 39.621C85.3109 40.0197 85.7572 40.5787 86.0779 41.298C86.3985 42.0087 86.5589 42.8363 86.5589 43.781C86.5589 44.7343 86.3985 45.575 86.0779 46.303C85.7572 47.031 85.3109 47.603 84.7389 48.019C84.1669 48.4263 83.5082 48.63 82.7629 48.63ZM82.7629 47.447C83.2569 47.447 83.6772 47.2953 84.0239 46.992C84.3705 46.68 84.6305 46.251 84.8039 45.705C84.9859 45.1503 85.0769 44.5047 85.0769 43.768C85.0769 43.04 84.9859 42.4073 84.8039 41.87C84.6305 41.3327 84.3705 40.921 84.0239 40.635C83.6859 40.3403 83.2655 40.193 82.7629 40.193C82.2515 40.193 81.8225 40.3403 81.4759 40.635C81.1379 40.9297 80.8779 41.3457 80.6959 41.883C80.5225 42.4117 80.4359 43.04 80.4359 43.768C80.4359 44.5047 80.5269 45.1503 80.7089 45.705C80.8909 46.2597 81.1509 46.6887 81.4889 46.992C81.8355 47.2953 82.2602 47.447 82.7629 47.447ZM87.3739 45.549V44.379H91.9629V45.549H87.3739ZM93.9737 48.5V40.427L94.2207 40.531C94.108 40.7737 93.913 41.012 93.6357 41.246C93.3583 41.48 93.0377 41.6837 92.6737 41.857C92.3097 42.0217 91.924 42.1387 91.5167 42.208V40.882C91.898 40.8213 92.2707 40.7087 92.6347 40.544C92.9987 40.3707 93.3237 40.1627 93.6097 39.92C93.8957 39.6687 94.108 39.4087 94.2467 39.14H95.3127V48.5H93.9737ZM98.6775 48.5V40.427L98.9245 40.531C98.8119 40.7737 98.6169 41.012 98.3395 41.246C98.0622 41.48 97.7415 41.6837 97.3775 41.857C97.0135 42.0217 96.6279 42.1387 96.2205 42.208V40.882C96.6019 40.8213 96.9745 40.7087 97.3385 40.544C97.7025 40.3707 98.0275 40.1627 98.3135 39.92C98.5995 39.6687 98.8119 39.4087 98.9505 39.14H100.017V48.5H98.6775ZM101.383 48.5V46.888H102.982V48.5H101.383ZM101.383 43.794V42.182H102.982V43.794H101.383ZM107.768 48.63C107.014 48.63 106.351 48.4263 105.779 48.019C105.207 47.603 104.76 47.031 104.44 46.303C104.119 45.5663 103.959 44.7257 103.959 43.781C103.959 42.8363 104.119 42.0087 104.44 41.298C104.76 40.5787 105.207 40.0197 105.779 39.621C106.351 39.2137 107.014 39.01 107.768 39.01C108.522 39.01 109.18 39.2137 109.744 39.621C110.316 40.0197 110.762 40.5787 111.083 41.298C111.403 42.0087 111.564 42.8363 111.564 43.781C111.564 44.7343 111.403 45.575 111.083 46.303C110.762 47.031 110.316 47.603 109.744 48.019C109.172 48.4263 108.513 48.63 107.768 48.63ZM107.768 47.447C108.262 47.447 108.682 47.2953 109.029 46.992C109.375 46.68 109.635 46.251 109.809 45.705C109.991 45.1503 110.082 44.5047 110.082 43.768C110.082 43.04 109.991 42.4073 109.809 41.87C109.635 41.3327 109.375 40.921 109.029 40.635C108.691 40.3403 108.27 40.193 107.768 40.193C107.256 40.193 106.827 40.3403 106.481 40.635C106.143 40.9297 105.883 41.3457 105.701 41.883C105.527 42.4117 105.441 43.04 105.441 43.768C105.441 44.5047 105.532 45.1503 105.714 45.705C105.896 46.2597 106.156 46.6887 106.494 46.992C106.84 47.2953 107.265 47.447 107.768 47.447ZM116.407 48.63C115.653 48.63 114.99 48.4263 114.418 48.019C113.846 47.603 113.4 47.031 113.079 46.303C112.758 45.5663 112.598 44.7257 112.598 43.781C112.598 42.8363 112.758 42.0087 113.079 41.298C113.4 40.5787 113.846 40.0197 114.418 39.621C114.99 39.2137 115.653 39.01 116.407 39.01C117.161 39.01 117.82 39.2137 118.383 39.621C118.955 40.0197 119.401 40.5787 119.722 41.298C120.043 42.0087 120.203 42.8363 120.203 43.781C120.203 44.7343 120.043 45.575 119.722 46.303C119.401 47.031 118.955 47.603 118.383 48.019C117.811 48.4263 117.152 48.63 116.407 48.63ZM116.407 47.447C116.901 47.447 117.321 47.2953 117.668 46.992C118.015 46.68 118.275 46.251 118.448 45.705C118.63 45.1503 118.721 44.5047 118.721 43.768C118.721 43.04 118.63 42.4073 118.448 41.87C118.275 41.3327 118.015 40.921 117.668 40.635C117.33 40.3403 116.91 40.193 116.407 40.193C115.896 40.193 115.467 40.3403 115.12 40.635C114.782 40.9297 114.522 41.3457 114.34 41.883C114.167 42.4117 114.08 43.04 114.08 43.768C114.08 44.5047 114.171 45.1503 114.353 45.705C114.535 46.2597 114.795 46.6887 115.133 46.992C115.48 47.2953 115.904 47.447 116.407 47.447ZM123.221 48.5L126.744 39.14H127.94L124.573 48.5H123.221ZM130.462 48.5L127.095 39.14H128.356L131.892 48.5H130.462ZM125.002 44.769H130.02V45.913H125.002V44.769ZM133.016 48.5V39.14H135.148L138.268 48.162H137.566L140.66 39.14H142.818V48.5H141.453V39.699H141.661L138.645 48.5H137.111L134.095 39.777H134.303V48.5H133.016ZM150.912 48.63C150.262 48.63 149.659 48.513 149.105 48.279C148.55 48.0363 148.069 47.7027 147.662 47.278C147.263 46.8447 146.951 46.3333 146.726 45.744C146.5 45.1547 146.388 44.509 146.388 43.807C146.388 43.105 146.496 42.4637 146.713 41.883C146.938 41.2937 147.25 40.7867 147.649 40.362C148.056 39.9287 148.537 39.595 149.092 39.361C149.646 39.127 150.249 39.01 150.899 39.01C151.627 39.01 152.281 39.1573 152.862 39.452C153.442 39.738 153.915 40.1453 154.279 40.674C154.651 41.2027 154.881 41.818 154.968 42.52H153.616C153.503 41.7833 153.204 41.2113 152.719 40.804C152.242 40.388 151.64 40.18 150.912 40.18C150.296 40.18 149.75 40.3317 149.274 40.635C148.806 40.9297 148.442 41.35 148.182 41.896C147.922 42.4333 147.792 43.0703 147.792 43.807C147.792 44.535 147.922 45.1763 148.182 45.731C148.45 46.277 148.819 46.7017 149.287 47.005C149.755 47.3083 150.296 47.46 150.912 47.46C151.64 47.46 152.246 47.2563 152.732 46.849C153.226 46.433 153.525 45.8567 153.629 45.12H154.994C154.898 45.8307 154.664 46.4503 154.292 46.979C153.919 47.499 153.442 47.9063 152.862 48.201C152.29 48.487 151.64 48.63 150.912 48.63ZM156.205 48.5V39.14H157.583V48.5H156.205ZM156.881 48.5V47.369H162.705V48.5H156.881ZM156.881 44.223V43.092H162.237V44.223H156.881ZM156.881 40.271V39.14H162.588V40.271H156.881ZM167.082 48.617C165.955 48.617 165.054 48.3483 164.378 47.811C163.702 47.2737 163.307 46.5067 163.195 45.51H164.534C164.612 46.16 164.872 46.654 165.314 46.992C165.756 47.33 166.354 47.499 167.108 47.499C167.74 47.499 168.217 47.382 168.538 47.148C168.867 46.914 169.032 46.5803 169.032 46.147C169.032 45.757 168.923 45.4493 168.707 45.224C168.49 44.99 168.148 44.7993 167.68 44.652L166.055 44.132C165.223 43.8633 164.612 43.5253 164.222 43.118C163.832 42.7107 163.637 42.195 163.637 41.571C163.637 41.0423 163.767 40.5873 164.027 40.206C164.295 39.8247 164.668 39.53 165.145 39.322C165.63 39.1053 166.193 38.997 166.835 38.997C167.823 38.997 168.611 39.2483 169.201 39.751C169.799 40.245 170.141 40.934 170.228 41.818H168.889C168.785 41.2287 168.559 40.7997 168.213 40.531C167.866 40.2537 167.389 40.115 166.783 40.115C166.211 40.115 165.764 40.2277 165.444 40.453C165.123 40.6783 164.963 40.9947 164.963 41.402C164.963 41.7313 165.067 42.0087 165.275 42.234C165.491 42.4507 165.847 42.637 166.341 42.793L168.044 43.339C168.832 43.5903 169.413 43.9327 169.786 44.366C170.167 44.7993 170.358 45.3453 170.358 46.004C170.358 46.836 170.072 47.4817 169.5 47.941C168.928 48.3917 168.122 48.617 167.082 48.617ZM173.849 48.5V40.271H170.69V39.14H178.386V40.271H175.227V48.5H173.849Z" fill="#959595"/>
<path d="M264.895 24.4074C264.895 20.3164 268.211 17 272.302 17H468.487C472.578 17 475.895 20.3164 475.895 24.4074V41.5926C475.895 45.6836 472.578 49 468.487 49H272.302C268.211 49 264.895 45.6836 264.895 41.5926V24.4074Z" fill="#4F46E5" fill-opacity="0.06"/>
<path d="M281.503 37.724C279.291 37.724 277.933 35.68 277.933 32.544C277.933 29.38 279.291 27.336 281.503 27.336C283.715 27.336 285.087 29.38 285.087 32.544C285.087 35.68 283.715 37.724 281.503 37.724ZM279.529 32.544C279.529 34.882 280.271 36.296 281.503 36.296C282.735 36.296 283.491 34.882 283.491 32.544C283.491 30.178 282.735 28.764 281.503 28.764C280.271 28.764 279.529 30.178 279.529 32.544ZM292.921 27.56V28.988H288.693L288.343 31.592C288.791 31.116 289.533 30.864 290.233 30.864C292.067 30.864 293.453 32.292 293.453 34.294C293.453 36.31 291.997 37.724 289.925 37.724C288.077 37.724 286.579 36.478 286.439 34.868L288.035 34.784C288.161 35.708 288.931 36.296 290.037 36.296C291.087 36.296 291.857 35.47 291.857 34.294C291.857 33.09 291.017 32.264 289.883 32.264C289.141 32.264 288.427 32.684 288.189 33.258H286.593L287.377 27.56H292.921ZM295.464 27.56H296.934V31.032C297.354 30.276 298.152 29.912 299.034 29.912C300.658 29.912 301.456 31.102 301.456 32.726V37.5H299.972V33.132C299.972 31.872 299.566 31.2 298.6 31.2C297.578 31.2 296.934 31.872 296.934 33.132V37.5H295.464V27.56Z" fill="#4F46E5"/>
<path d="M310.585 35.918H312.209V37.5H310.585V35.918ZM310.585 32.544V30.962H312.209V32.544H310.585Z" fill="#4F46E5"/>
<path d="M327.219 27.56V34.182H328.283V35.61H327.219V37.5H325.693V35.61H320.667V34.112L325.483 27.56H327.219ZM322.473 34.182H325.693V29.814L322.473 34.182ZM335.613 27.56V34.182H336.677V35.61H335.613V37.5H334.087V35.61H329.061V34.112L333.877 27.56H335.613ZM330.867 34.182H334.087V29.814L330.867 34.182ZM337.638 30.08H338.94L338.982 31.088C339.262 30.318 339.766 29.912 340.48 29.912C341.138 29.912 341.544 30.318 341.796 31.242C342.048 30.402 342.608 29.912 343.35 29.912C344.484 29.912 345.016 30.878 345.016 32.922V37.5H343.56V32.922C343.56 31.62 343.378 31.13 342.902 31.13C342.356 31.13 342.048 31.746 342.048 32.922V37.5H340.592V32.922C340.592 31.62 340.396 31.13 339.864 31.13C339.374 31.13 339.094 31.746 339.094 32.922V37.5H337.638V30.08Z" fill="#4F46E5"/>
<path d="M353.585 35.918H355.209V37.5H353.585V35.918ZM353.585 32.544V30.962H355.209V32.544H353.585Z" fill="#4F46E5"/>
<path d="M370.219 27.56V34.182H371.283V35.61H370.219V37.5H368.693V35.61H363.667V34.112L368.483 27.56H370.219ZM365.473 34.182H368.693V29.814L365.473 34.182ZM372.523 30.612C372.733 28.722 374.077 27.336 376.121 27.336C378.039 27.336 379.425 28.582 379.425 30.262C379.425 31.69 378.333 32.684 376.919 33.524C376.191 33.93 374.357 35.134 374.245 36.072H379.481V37.5H372.341C372.341 34.532 374.133 33.468 376.065 32.264C377.045 31.648 377.829 31.004 377.829 30.248C377.829 29.394 377.129 28.764 376.121 28.764C375.029 28.764 374.315 29.492 374.119 30.71L372.523 30.612ZM385.832 32.418C385.692 31.676 385.02 31.256 384.194 31.256C383.508 31.256 382.906 31.578 382.92 32.222C382.934 32.908 383.76 33.076 384.628 33.286C386.056 33.622 387.414 34.196 387.414 35.554C387.414 37.01 386.056 37.668 384.446 37.668C382.682 37.668 381.268 36.688 381.156 35.134L382.724 35.05C382.836 35.834 383.536 36.31 384.446 36.31C385.16 36.31 385.86 36.142 385.86 35.484C385.86 34.812 384.992 34.686 384.152 34.49C382.696 34.14 381.366 33.58 381.366 32.264C381.366 30.78 382.71 29.912 384.32 29.912C385.902 29.912 387.134 30.864 387.372 32.334L385.832 32.418Z" fill="#4F46E5"/>
<path d="M400.895 25V41" stroke="#CBD5E1"/>
<g clip-path="url(#clip0_1527_102)">
<path d="M425.895 27.5H415.895C415.618 27.5 415.395 27.7239 415.395 28V38C415.395 38.2761 415.618 38.5 415.895 38.5H425.895C426.171 38.5 426.395 38.2761 426.395 38V28C426.395 27.7239 426.171 27.5 425.895 27.5Z" stroke="#4F46E5" stroke-width="1.5" stroke-linecap="round" stroke-linejoin="round"/>
<path d="M423.895 26.5V28.5" stroke="#4F46E5" stroke-width="1.5" stroke-linecap="round" stroke-linejoin="round"/>
<path d="M417.895 26.5V28.5" stroke="#4F46E5" stroke-width="1.5" stroke-linecap="round" stroke-linejoin="round"/>
<path d="M415.395 30.5H426.395" stroke="#4F46E5" stroke-width="1.5" stroke-linecap="round" stroke-linejoin="round"/>
<path d="M422.395 34.5H419.395" stroke="#4F46E5" stroke-width="1.5" stroke-linecap="round" stroke-linejoin="round"/>
<path d="M420.895 33V36" stroke="#4F46E5" stroke-width="1.5" stroke-linecap="round" stroke-linejoin="round"/>
</g>
<path d="M433.189 38L436.017 28.06H438.173L441.001 38H439.223L437.095 30.02L434.967 38H433.189ZM434.925 35.648L435.401 34.094H438.789L439.265 35.648H434.925ZM442.003 38V28.06H444.481C445.386 28.06 446.166 28.256 446.819 28.648C447.482 29.0307 447.986 29.5953 448.331 30.342C448.686 31.0793 448.863 31.98 448.863 33.044C448.863 34.108 448.686 35.0087 448.331 35.746C447.986 36.4833 447.482 37.0433 446.819 37.426C446.166 37.8087 445.386 38 444.481 38H442.003ZM443.725 36.404H444.481C445.312 36.404 445.951 36.124 446.399 35.564C446.847 35.004 447.071 34.164 447.071 33.044C447.071 31.9147 446.847 31.07 446.399 30.51C445.951 29.9407 445.312 29.656 444.481 29.656H443.725V36.404ZM450.048 38V28.06H452.526C453.431 28.06 454.21 28.256 454.864 28.648C455.526 29.0307 456.03 29.5953 456.376 30.342C456.73 31.0793 456.908 31.98 456.908 33.044C456.908 34.108 456.73 35.0087 456.376 35.746C456.03 36.4833 455.526 37.0433 454.864 37.426C454.21 37.8087 453.431 38 452.526 38H450.048ZM451.77 36.404H452.526C453.356 36.404 453.996 36.124 454.444 35.564C454.892 35.004 455.116 34.164 455.116 33.044C455.116 31.9147 454.892 31.07 454.444 30.51C453.996 29.9407 453.356 29.656 452.526 29.656H451.77V36.404Z" fill="#4F46E5"/>
<defs>
<clipPath id="clip0_1527_102">
<rect width="16" height="16" fill="white" transform="translate(412.895 25)"/>
</clipPath>
</defs>
</svg>
