<svg width="20" height="20" viewBox="0 0 20 20" fill="none" xmlns="http://www.w3.org/2000/svg">
<g clip-path="url(#clip0_1259_5077)">
<path fill-rule="evenodd" clip-rule="evenodd" d="M11.427 10.2667V0H8.57031V10.2667H11.427Z" fill="#5A2EA3"/>
<path d="M9.99745 5.39529C8.10403 5.39529 6.56911 6.9302 6.56911 8.82362C6.56911 10.717 8.10403 12.252 9.99745 12.252C11.8909 12.252 13.4258 10.717 13.4258 8.82362C13.4258 6.9302 11.8909 5.39529 9.99745 5.39529Z" fill="#5A2EA3"/>
<path fill-rule="evenodd" clip-rule="evenodd" d="M8.85638 20.0003V13.742L4.85638 9.98113V4.28613H1.99805V11.2161L5.99805 14.977V20.0003H8.85638Z" fill="#9D62FF"/>
<path fill-rule="evenodd" clip-rule="evenodd" d="M11.1406 20.0003V13.742L15.1406 9.98113V4.28613H17.999V11.2161L13.999 14.977V20.0003H11.1406Z" fill="#C3A0FF"/>
<path d="M16.569 0.00075531C18.4624 0.00075531 19.9973 1.53567 19.9973 3.42909C19.9973 5.3225 18.4624 6.85742 16.569 6.85742C14.6755 6.85742 13.1406 5.3225 13.1406 3.42909C13.1406 1.53567 14.6755 0.00075531 16.569 0.00075531Z" fill="#C3A0FF"/>
<path d="M3.43785 0.00075531C5.33127 0.00075531 6.86619 1.53567 6.86619 3.42909C6.86619 5.3225 5.33127 6.85742 3.43785 6.85742C1.54444 6.85742 0.00952148 5.3225 0.00952148 3.42909C0.00952148 1.53567 1.54444 0.00075531 3.43785 0.00075531Z" fill="#9D62FF"/>
</g>
<defs>
<clipPath id="clip0_1259_5077">
<rect width="20" height="20" fill="white"/>
</clipPath>
</defs>
</svg>
